<?xml version="1.0" encoding="UTF-8"?>
<!DOCTYPE svg PUBLIC "-//W3C//DTD SVG 1.1//EN"
    "http://www.w3.org/Graphics/SVG/1.1/DTD/svg11.dtd"><svg xmlns="http://www.w3.org/2000/svg" height="600.0000" stroke-opacity="1" viewBox="0 0 800 600" font-size="1" width="800.0000" xmlns:xlink="http://www.w3.org/1999/xlink" stroke="rgb(0,0,0)" version="1.1"><defs></defs><g stroke-linejoin="bevel" stroke-opacity="0.0" fill-opacity="1.0" stroke="rgb(0,0,0)" stroke-width="0.0" fill="rgb(255,255,255)" stroke-linecap="butt" stroke-miterlimit="10.0"><path d="M 0.0000,0.0000 v 600.0000 h 800.0000 v -600.0000 Z"/></g><g stroke-linejoin="miter" stroke-opacity="1.0" fill-opacity="0.0" stroke="rgb(211,211,211)" stroke-width="0.9999999999999997" fill="rgb(0,0,0)" stroke-dashoffset="0.0" stroke-linecap="butt" stroke-miterlimit="10.0" stroke-dasharray="4.999999999999998,4.999999999999998"><path d="M 70.5546,540.0000 h 656.2773 "/></g><g stroke-linejoin="miter" stroke-opacity="1.0" fill-opacity="0.0" stroke="rgb(211,211,211)" stroke-width="0.9999999999999997" fill="rgb(0,0,0)" stroke-dashoffset="0.0" stroke-linecap="butt" stroke-miterlimit="10.0" stroke-dasharray="4.999999999999998,4.999999999999998"><path d="M 70.5546,435.4000 h 656.2773 "/></g><g stroke-linejoin="miter" stroke-opacity="1.0" fill-opacity="0.0" stroke="rgb(211,211,211)" stroke-width="0.9999999999999997" fill="rgb(0,0,0)" stroke-dashoffset="0.0" stroke-linecap="butt" stroke-miterlimit="10.0" stroke-dasharray="4.999999999999998,4.999999999999998"><path d="M 70.5546,330.8000 h 656.2773 "/></g><g stroke-linejoin="miter" stroke-opacity="1.0" fill-opacity="0.0" stroke="rgb(211,211,211)" stroke-width="0.9999999999999997" fill="rgb(0,0,0)" stroke-dashoffset="0.0" stroke-linecap="butt" stroke-miterlimit="10.0" stroke-dasharray="4.999999999999998,4.999999999999998"><path d="M 70.5546,226.2000 h 656.2773 "/></g><g stroke-linejoin="miter" stroke-opacity="1.0" fill-opacity="0.0" stroke="rgb(211,211,211)" stroke-width="0.9999999999999997" fill="rgb(0,0,0)" stroke-dashoffset="0.0" stroke-linecap="butt" stroke-miterlimit="10.0" stroke-dasharray="4.999999999999998,4.999999999999998"><path d="M 70.5546,121.6000 h 656.2773 "/></g><g stroke-linejoin="miter" stroke-opacity="1.0" fill-opacity="0.0" stroke="rgb(211,211,211)" stroke-width="0.9999999999999997" fill="rgb(0,0,0)" stroke-dashoffset="0.0" stroke-linecap="butt" stroke-miterlimit="10.0" stroke-dasharray="4.999999999999998,4.999999999999998"><path d="M 70.5546,17.0000 h 656.2773 "/></g><g stroke-linejoin="bevel" stroke-opacity="0.0" fill-opacity="1.0" stroke="rgb(0,0,0)" stroke-width="0.0" fill="rgb(0,0,255)" stroke-linecap="butt" stroke-miterlimit="10.0"><defs><clipPath id="myClip1"><path d="M 70.5546,17.0000 v 523.0000 h 656.2773 v -523.0000 Z"/></clipPath></defs><g clip-path="url(#myClip1)"><path d="M 85.5546,435.4000 v -334.6982 h 99.3796 v 334.6982 Z"/></g></g><g stroke-linejoin="bevel" stroke-opacity="0.0" fill-opacity="1.0" stroke="rgb(0,0,0)" stroke-width="0.0" fill="rgb(0,128,0)" stroke-linecap="butt" stroke-miterlimit="10.0"><defs><clipPath id="myClip2"><path d="M 70.5546,17.0000 v 523.0000 h 656.2773 v -523.0000 Z"/></clipPath></defs><g clip-path="url(#myClip2)"><path d="M 184.9342,435.4000 v -341.7098 h 99.3796 v 341.7098 Z"/></g></g><g stroke-linejoin="bevel" stroke-opacity="0.0" fill-opacity="1.0" stroke="rgb(0,0,0)" stroke-width="0.0" fill="rgb(255,0,0)" stroke-linecap="butt" stroke-miterlimit="10.0"><defs><clipPath id="myClip3"><path d="M 70.5546,17.0000 v 523.0000 h 656.2773 v -523.0000 Z"/></clipPath></defs><g clip-path="url(#myClip3)"><path d="M 284.3137,435.4000 v -336.9869 h 99.3796 v 336.9869 Z"/></g></g><g stroke-linejoin="miter" stroke-opacity="1.0" fill-opacity="0.0" stroke="rgb(0,0,0)" stroke-width="0.9999999999999997" fill="rgb(0,0,0)" stroke-linecap="butt" stroke-miterlimit="10.0"><defs><clipPath id="myClip4"><path d="M 70.5546,17.0000 v 523.0000 h 656.2773 v -523.0000 Z"/></clipPath></defs><g clip-path="url(#myClip4)"><path d="M 85.5546,435.4000 v -334.6982 h 99.3796 v 334.6982 Z"/></g></g><g stroke-linejoin="miter" stroke-opacity="1.0" fill-opacity="0.0" stroke="rgb(0,0,0)" stroke-width="0.9999999999999997" fill="rgb(0,0,0)" stroke-linecap="butt" stroke-miterlimit="10.0"><defs><clipPath id="myClip5"><path d="M 70.5546,17.0000 v 523.0000 h 656.2773 v -523.0000 Z"/></clipPath></defs><g clip-path="url(#myClip5)"><path d="M 184.9342,435.4000 v -341.7098 h 99.3796 v 341.7098 Z"/></g></g><g stroke-linejoin="miter" stroke-opacity="1.0" fill-opacity="0.0" stroke="rgb(0,0,0)" stroke-width="0.9999999999999997" fill="rgb(0,0,0)" stroke-linecap="butt" stroke-miterlimit="10.0"><defs><clipPath id="myClip6"><path d="M 70.5546,17.0000 v 523.0000 h 656.2773 v -523.0000 Z"/></clipPath></defs><g clip-path="url(#myClip6)"><path d="M 284.3137,435.4000 v -336.9869 h 99.3796 v 336.9869 Z"/></g></g><g stroke-linejoin="bevel" stroke-opacity="0.0" fill-opacity="1.0" stroke="rgb(0,0,0)" stroke-width="0.0" fill="rgb(0,0,255)" stroke-linecap="butt" stroke-miterlimit="10.0"><defs><clipPath id="myClip7"><path d="M 70.5546,17.0000 v 523.0000 h 656.2773 v -523.0000 Z"/></clipPath></defs><g clip-path="url(#myClip7)"><path d="M 413.6933,435.4000 v -31.3800 h 99.3796 v 31.3800 Z"/></g></g><g stroke-linejoin="bevel" stroke-opacity="0.0" fill-opacity="1.0" stroke="rgb(0,0,0)" stroke-width="0.0" fill="rgb(0,128,0)" stroke-linecap="butt" stroke-miterlimit="10.0"><defs><clipPath id="myClip8"><path d="M 70.5546,17.0000 v 523.0000 h 656.2773 v -523.0000 Z"/></clipPath></defs><g clip-path="url(#myClip8)"><path d="M 513.0728,435.4000 v 52.3000 h 99.3796 v -52.3000 Z"/></g></g><g stroke-linejoin="bevel" stroke-opacity="0.0" fill-opacity="1.0" stroke="rgb(0,0,0)" stroke-width="0.0" fill="rgb(255,0,0)" stroke-linecap="butt" stroke-miterlimit="10.0"><defs><clipPath id="myClip9"><path d="M 70.5546,17.0000 v 523.0000 h 656.2773 v -523.0000 Z"/></clipPath></defs><g clip-path="url(#myClip9)"><path d="M 612.4524,435.4000 v 52.3000 h 99.3796 v -52.3000 Z"/></g></g><g stroke-linejoin="miter" stroke-opacity="1.0" fill-opacity="0.0" stroke="rgb(0,0,0)" stroke-width="0.9999999999999997" fill="rgb(0,0,0)" stroke-linecap="butt" stroke-miterlimit="10.0"><defs><clipPath id="myClip10"><path d="M 70.5546,17.0000 v 523.0000 h 656.2773 v -523.0000 Z"/></clipPath></defs><g clip-path="url(#myClip10)"><path d="M 413.6933,435.4000 v -31.3800 h 99.3796 v 31.3800 Z"/></g></g><g stroke-linejoin="miter" stroke-opacity="1.0" fill-opacity="0.0" stroke="rgb(0,0,0)" stroke-width="0.9999999999999997" fill="rgb(0,0,0)" stroke-linecap="butt" stroke-miterlimit="10.0"><defs><clipPath id="myClip11"><path d="M 70.5546,17.0000 v 523.0000 h 656.2773 v -523.0000 Z"/></clipPath></defs><g clip-path="url(#myClip11)"><path d="M 513.0728,435.4000 v 52.3000 h 99.3796 v -52.3000 Z"/></g></g><g stroke-linejoin="miter" stroke-opacity="1.0" fill-opacity="0.0" stroke="rgb(0,0,0)" stroke-width="0.9999999999999997" fill="rgb(0,0,0)" stroke-linecap="butt" stroke-miterlimit="10.0"><defs><clipPath id="myClip12"><path d="M 70.5546,17.0000 v 523.0000 h 656.2773 v -523.0000 Z"/></clipPath></defs><g clip-path="url(#myClip12)"><path d="M 612.4524,435.4000 v 52.3000 h 99.3796 v -52.3000 Z"/></g></g><g stroke-linejoin="miter" stroke-opacity="1.0" fill-opacity="0.0" stroke="rgb(0,0,0)" stroke-width="0.9999999999999997" fill="rgb(0,0,0)" stroke-linecap="square" stroke-miterlimit="10.0"><path d="M 70.5546,540.0000 v -523.0000 "/></g><g stroke-linejoin="miter" stroke-opacity="1.0" fill-opacity="0.0" stroke="rgb(0,0,0)" stroke-width="0.9999999999999997" fill="rgb(0,0,0)" stroke-linecap="butt" stroke-miterlimit="10.0"><path d="M 70.5546,550.4600 h 2.0000 "/></g><g stroke-linejoin="miter" stroke-opacity="1.0" fill-opacity="0.0" stroke="rgb(0,0,0)" stroke-width="0.9999999999999997" fill="rgb(0,0,0)" stroke-linecap="butt" stroke-miterlimit="10.0"><path d="M 70.5546,540.0000 h 2.0000 "/></g><g stroke-linejoin="miter" stroke-opacity="1.0" fill-opacity="0.0" stroke="rgb(0,0,0)" stroke-width="0.9999999999999997" fill="rgb(0,0,0)" stroke-linecap="butt" stroke-miterlimit="10.0"><path d="M 70.5546,529.5400 h 2.0000 "/></g><g stroke-linejoin="miter" stroke-opacity="1.0" fill-opacity="0.0" stroke="rgb(0,0,0)" stroke-width="0.9999999999999997" fill="rgb(0,0,0)" stroke-linecap="butt" stroke-miterlimit="10.0"><path d="M 70.5546,519.0800 h 2.0000 "/></g><g stroke-linejoin="miter" stroke-opacity="1.0" fill-opacity="0.0" stroke="rgb(0,0,0)" stroke-width="0.9999999999999997" fill="rgb(0,0,0)" stroke-linecap="butt" stroke-miterlimit="10.0"><path d="M 70.5546,508.6200 h 2.0000 "/></g><g stroke-linejoin="miter" stroke-opacity="1.0" fill-opacity="0.0" stroke="rgb(0,0,0)" stroke-width="0.9999999999999997" fill="rgb(0,0,0)" stroke-linecap="butt" stroke-miterlimit="10.0"><path d="M 70.5546,498.1600 h 2.0000 "/></g><g stroke-linejoin="miter" stroke-opacity="1.0" fill-opacity="0.0" stroke="rgb(0,0,0)" stroke-width="0.9999999999999997" fill="rgb(0,0,0)" stroke-linecap="butt" stroke-miterlimit="10.0"><path d="M 70.5546,487.7000 h 2.0000 "/></g><g stroke-linejoin="miter" stroke-opacity="1.0" fill-opacity="0.0" stroke="rgb(0,0,0)" stroke-width="0.9999999999999997" fill="rgb(0,0,0)" stroke-linecap="butt" stroke-miterlimit="10.0"><path d="M 70.5546,477.2400 h 2.0000 "/></g><g stroke-linejoin="miter" stroke-opacity="1.0" fill-opacity="0.0" stroke="rgb(0,0,0)" stroke-width="0.9999999999999997" fill="rgb(0,0,0)" stroke-linecap="butt" stroke-miterlimit="10.0"><path d="M 70.5546,466.7800 h 2.0000 "/></g><g stroke-linejoin="miter" stroke-opacity="1.0" fill-opacity="0.0" stroke="rgb(0,0,0)" stroke-width="0.9999999999999997" fill="rgb(0,0,0)" stroke-linecap="butt" stroke-miterlimit="10.0"><path d="M 70.5546,456.3200 h 2.0000 "/></g><g stroke-linejoin="miter" stroke-opacity="1.0" fill-opacity="0.0" stroke="rgb(0,0,0)" stroke-width="0.9999999999999997" fill="rgb(0,0,0)" stroke-linecap="butt" stroke-miterlimit="10.0"><path d="M 70.5546,445.8600 h 2.0000 "/></g><g stroke-linejoin="miter" stroke-opacity="1.0" fill-opacity="0.0" stroke="rgb(0,0,0)" stroke-width="0.9999999999999997" fill="rgb(0,0,0)" stroke-linecap="butt" stroke-miterlimit="10.0"><path d="M 70.5546,435.4000 h 2.0000 "/></g><g stroke-linejoin="miter" stroke-opacity="1.0" fill-opacity="0.0" stroke="rgb(0,0,0)" stroke-width="0.9999999999999997" fill="rgb(0,0,0)" stroke-linecap="butt" stroke-miterlimit="10.0"><path d="M 70.5546,424.9400 h 2.0000 "/></g><g stroke-linejoin="miter" stroke-opacity="1.0" fill-opacity="0.0" stroke="rgb(0,0,0)" stroke-width="0.9999999999999997" fill="rgb(0,0,0)" stroke-linecap="butt" stroke-miterlimit="10.0"><path d="M 70.5546,414.4800 h 2.0000 "/></g><g stroke-linejoin="miter" stroke-opacity="1.0" fill-opacity="0.0" stroke="rgb(0,0,0)" stroke-width="0.9999999999999997" fill="rgb(0,0,0)" stroke-linecap="butt" stroke-miterlimit="10.0"><path d="M 70.5546,404.0200 h 2.0000 "/></g><g stroke-linejoin="miter" stroke-opacity="1.0" fill-opacity="0.0" stroke="rgb(0,0,0)" stroke-width="0.9999999999999997" fill="rgb(0,0,0)" stroke-linecap="butt" stroke-miterlimit="10.0"><path d="M 70.5546,393.5600 h 2.0000 "/></g><g stroke-linejoin="miter" stroke-opacity="1.0" fill-opacity="0.0" stroke="rgb(0,0,0)" stroke-width="0.9999999999999997" fill="rgb(0,0,0)" stroke-linecap="butt" stroke-miterlimit="10.0"><path d="M 70.5546,383.1000 h 2.0000 "/></g><g stroke-linejoin="miter" stroke-opacity="1.0" fill-opacity="0.0" stroke="rgb(0,0,0)" stroke-width="0.9999999999999997" fill="rgb(0,0,0)" stroke-linecap="butt" stroke-miterlimit="10.0"><path d="M 70.5546,372.6400 h 2.0000 "/></g><g stroke-linejoin="miter" stroke-opacity="1.0" fill-opacity="0.0" stroke="rgb(0,0,0)" stroke-width="0.9999999999999997" fill="rgb(0,0,0)" stroke-linecap="butt" stroke-miterlimit="10.0"><path d="M 70.5546,362.1800 h 2.0000 "/></g><g stroke-linejoin="miter" stroke-opacity="1.0" fill-opacity="0.0" stroke="rgb(0,0,0)" stroke-width="0.9999999999999997" fill="rgb(0,0,0)" stroke-linecap="butt" stroke-miterlimit="10.0"><path d="M 70.5546,351.7200 h 2.0000 "/></g><g stroke-linejoin="miter" stroke-opacity="1.0" fill-opacity="0.0" stroke="rgb(0,0,0)" stroke-width="0.9999999999999997" fill="rgb(0,0,0)" stroke-linecap="butt" stroke-miterlimit="10.0"><path d="M 70.5546,341.2600 h 2.0000 "/></g><g stroke-linejoin="miter" stroke-opacity="1.0" fill-opacity="0.0" stroke="rgb(0,0,0)" stroke-width="0.9999999999999997" fill="rgb(0,0,0)" stroke-linecap="butt" stroke-miterlimit="10.0"><path d="M 70.5546,330.8000 h 2.0000 "/></g><g stroke-linejoin="miter" stroke-opacity="1.0" fill-opacity="0.0" stroke="rgb(0,0,0)" stroke-width="0.9999999999999997" fill="rgb(0,0,0)" stroke-linecap="butt" stroke-miterlimit="10.0"><path d="M 70.5546,320.3400 h 2.0000 "/></g><g stroke-linejoin="miter" stroke-opacity="1.0" fill-opacity="0.0" stroke="rgb(0,0,0)" stroke-width="0.9999999999999997" fill="rgb(0,0,0)" stroke-linecap="butt" stroke-miterlimit="10.0"><path d="M 70.5546,309.8800 h 2.0000 "/></g><g stroke-linejoin="miter" stroke-opacity="1.0" fill-opacity="0.0" stroke="rgb(0,0,0)" stroke-width="0.9999999999999997" fill="rgb(0,0,0)" stroke-linecap="butt" stroke-miterlimit="10.0"><path d="M 70.5546,299.4200 h 2.0000 "/></g><g stroke-linejoin="miter" stroke-opacity="1.0" fill-opacity="0.0" stroke="rgb(0,0,0)" stroke-width="0.9999999999999997" fill="rgb(0,0,0)" stroke-linecap="butt" stroke-miterlimit="10.0"><path d="M 70.5546,288.9600 h 2.0000 "/></g><g stroke-linejoin="miter" stroke-opacity="1.0" fill-opacity="0.0" stroke="rgb(0,0,0)" stroke-width="0.9999999999999997" fill="rgb(0,0,0)" stroke-linecap="butt" stroke-miterlimit="10.0"><path d="M 70.5546,278.5000 h 2.0000 "/></g><g stroke-linejoin="miter" stroke-opacity="1.0" fill-opacity="0.0" stroke="rgb(0,0,0)" stroke-width="0.9999999999999997" fill="rgb(0,0,0)" stroke-linecap="butt" stroke-miterlimit="10.0"><path d="M 70.5546,268.0400 h 2.0000 "/></g><g stroke-linejoin="miter" stroke-opacity="1.0" fill-opacity="0.0" stroke="rgb(0,0,0)" stroke-width="0.9999999999999997" fill="rgb(0,0,0)" stroke-linecap="butt" stroke-miterlimit="10.0"><path d="M 70.5546,257.5800 h 2.0000 "/></g><g stroke-linejoin="miter" stroke-opacity="1.0" fill-opacity="0.0" stroke="rgb(0,0,0)" stroke-width="0.9999999999999997" fill="rgb(0,0,0)" stroke-linecap="butt" stroke-miterlimit="10.0"><path d="M 70.5546,247.1200 h 2.0000 "/></g><g stroke-linejoin="miter" stroke-opacity="1.0" fill-opacity="0.0" stroke="rgb(0,0,0)" stroke-width="0.9999999999999997" fill="rgb(0,0,0)" stroke-linecap="butt" stroke-miterlimit="10.0"><path d="M 70.5546,236.6600 h 2.0000 "/></g><g stroke-linejoin="miter" stroke-opacity="1.0" fill-opacity="0.0" stroke="rgb(0,0,0)" stroke-width="0.9999999999999997" fill="rgb(0,0,0)" stroke-linecap="butt" stroke-miterlimit="10.0"><path d="M 70.5546,226.2000 h 2.0000 "/></g><g stroke-linejoin="miter" stroke-opacity="1.0" fill-opacity="0.0" stroke="rgb(0,0,0)" stroke-width="0.9999999999999997" fill="rgb(0,0,0)" stroke-linecap="butt" stroke-miterlimit="10.0"><path d="M 70.5546,215.7400 h 2.0000 "/></g><g stroke-linejoin="miter" stroke-opacity="1.0" fill-opacity="0.0" stroke="rgb(0,0,0)" stroke-width="0.9999999999999997" fill="rgb(0,0,0)" stroke-linecap="butt" stroke-miterlimit="10.0"><path d="M 70.5546,205.2800 h 2.0000 "/></g><g stroke-linejoin="miter" stroke-opacity="1.0" fill-opacity="0.0" stroke="rgb(0,0,0)" stroke-width="0.9999999999999997" fill="rgb(0,0,0)" stroke-linecap="butt" stroke-miterlimit="10.0"><path d="M 70.5546,194.8200 h 2.0000 "/></g><g stroke-linejoin="miter" stroke-opacity="1.0" fill-opacity="0.0" stroke="rgb(0,0,0)" stroke-width="0.9999999999999997" fill="rgb(0,0,0)" stroke-linecap="butt" stroke-miterlimit="10.0"><path d="M 70.5546,184.3600 h 2.0000 "/></g><g stroke-linejoin="miter" stroke-opacity="1.0" fill-opacity="0.0" stroke="rgb(0,0,0)" stroke-width="0.9999999999999997" fill="rgb(0,0,0)" stroke-linecap="butt" stroke-miterlimit="10.0"><path d="M 70.5546,173.9000 h 2.0000 "/></g><g stroke-linejoin="miter" stroke-opacity="1.0" fill-opacity="0.0" stroke="rgb(0,0,0)" stroke-width="0.9999999999999997" fill="rgb(0,0,0)" stroke-linecap="butt" stroke-miterlimit="10.0"><path d="M 70.5546,163.4400 h 2.0000 "/></g><g stroke-linejoin="miter" stroke-opacity="1.0" fill-opacity="0.0" stroke="rgb(0,0,0)" stroke-width="0.9999999999999997" fill="rgb(0,0,0)" stroke-linecap="butt" stroke-miterlimit="10.0"><path d="M 70.5546,152.9800 h 2.0000 "/></g><g stroke-linejoin="miter" stroke-opacity="1.0" fill-opacity="0.0" stroke="rgb(0,0,0)" stroke-width="0.9999999999999997" fill="rgb(0,0,0)" stroke-linecap="butt" stroke-miterlimit="10.0"><path d="M 70.5546,142.5200 h 2.0000 "/></g><g stroke-linejoin="miter" stroke-opacity="1.0" fill-opacity="0.0" stroke="rgb(0,0,0)" stroke-width="0.9999999999999997" fill="rgb(0,0,0)" stroke-linecap="butt" stroke-miterlimit="10.0"><path d="M 70.5546,132.0600 h 2.0000 "/></g><g stroke-linejoin="miter" stroke-opacity="1.0" fill-opacity="0.0" stroke="rgb(0,0,0)" stroke-width="0.9999999999999997" fill="rgb(0,0,0)" stroke-linecap="butt" stroke-miterlimit="10.0"><path d="M 70.5546,121.6000 h 2.0000 "/></g><g stroke-linejoin="miter" stroke-opacity="1.0" fill-opacity="0.0" stroke="rgb(0,0,0)" stroke-width="0.9999999999999997" fill="rgb(0,0,0)" stroke-linecap="butt" stroke-miterlimit="10.0"><path d="M 70.5546,111.1400 h 2.0000 "/></g><g stroke-linejoin="miter" stroke-opacity="1.0" fill-opacity="0.0" stroke="rgb(0,0,0)" stroke-width="0.9999999999999997" fill="rgb(0,0,0)" stroke-linecap="butt" stroke-miterlimit="10.0"><path d="M 70.5546,100.6800 h 2.0000 "/></g><g stroke-linejoin="miter" stroke-opacity="1.0" fill-opacity="0.0" stroke="rgb(0,0,0)" stroke-width="0.9999999999999997" fill="rgb(0,0,0)" stroke-linecap="butt" stroke-miterlimit="10.0"><path d="M 70.5546,90.2200 h 2.0000 "/></g><g stroke-linejoin="miter" stroke-opacity="1.0" fill-opacity="0.0" stroke="rgb(0,0,0)" stroke-width="0.9999999999999997" fill="rgb(0,0,0)" stroke-linecap="butt" stroke-miterlimit="10.0"><path d="M 70.5546,79.7600 h 2.0000 "/></g><g stroke-linejoin="miter" stroke-opacity="1.0" fill-opacity="0.0" stroke="rgb(0,0,0)" stroke-width="0.9999999999999997" fill="rgb(0,0,0)" stroke-linecap="butt" stroke-miterlimit="10.0"><path d="M 70.5546,69.3000 h 2.0000 "/></g><g stroke-linejoin="miter" stroke-opacity="1.0" fill-opacity="0.0" stroke="rgb(0,0,0)" stroke-width="0.9999999999999997" fill="rgb(0,0,0)" stroke-linecap="butt" stroke-miterlimit="10.0"><path d="M 70.5546,58.8400 h 2.0000 "/></g><g stroke-linejoin="miter" stroke-opacity="1.0" fill-opacity="0.0" stroke="rgb(0,0,0)" stroke-width="0.9999999999999997" fill="rgb(0,0,0)" stroke-linecap="butt" stroke-miterlimit="10.0"><path d="M 70.5546,48.3800 h 2.0000 "/></g><g stroke-linejoin="miter" stroke-opacity="1.0" fill-opacity="0.0" stroke="rgb(0,0,0)" stroke-width="0.9999999999999997" fill="rgb(0,0,0)" stroke-linecap="butt" stroke-miterlimit="10.0"><path d="M 70.5546,37.9200 h 2.0000 "/></g><g stroke-linejoin="miter" stroke-opacity="1.0" fill-opacity="0.0" stroke="rgb(0,0,0)" stroke-width="0.9999999999999997" fill="rgb(0,0,0)" stroke-linecap="butt" stroke-miterlimit="10.0"><path d="M 70.5546,27.4600 h 2.0000 "/></g><g stroke-linejoin="miter" stroke-opacity="1.0" fill-opacity="0.0" stroke="rgb(0,0,0)" stroke-width="0.9999999999999997" fill="rgb(0,0,0)" stroke-linecap="butt" stroke-miterlimit="10.0"><path d="M 70.5546,17.0000 h 2.0000 "/></g><g stroke-linejoin="miter" stroke-opacity="1.0" fill-opacity="0.0" stroke="rgb(0,0,0)" stroke-width="0.9999999999999997" fill="rgb(0,0,0)" stroke-linecap="butt" stroke-miterlimit="10.0"><path d="M 70.5546,6.5400 h 2.0000 "/></g><g stroke-linejoin="miter" stroke-opacity="1.0" fill-opacity="0.0" stroke="rgb(0,0,0)" stroke-width="0.9999999999999997" fill="rgb(0,0,0)" stroke-linecap="butt" stroke-miterlimit="10.0"><path d="M 70.5546,540.0000 h 5.0000 "/></g><g stroke-linejoin="miter" stroke-opacity="1.0" fill-opacity="0.0" stroke="rgb(0,0,0)" stroke-width="0.9999999999999997" fill="rgb(0,0,0)" stroke-linecap="butt" stroke-miterlimit="10.0"><path d="M 70.5546,435.4000 h 5.0000 "/></g><g stroke-linejoin="miter" stroke-opacity="1.0" fill-opacity="0.0" stroke="rgb(0,0,0)" stroke-width="0.9999999999999997" fill="rgb(0,0,0)" stroke-linecap="butt" stroke-miterlimit="10.0"><path d="M 70.5546,330.8000 h 5.0000 "/></g><g stroke-linejoin="miter" stroke-opacity="1.0" fill-opacity="0.0" stroke="rgb(0,0,0)" stroke-width="0.9999999999999997" fill="rgb(0,0,0)" stroke-linecap="butt" stroke-miterlimit="10.0"><path d="M 70.5546,226.2000 h 5.0000 "/></g><g stroke-linejoin="miter" stroke-opacity="1.0" fill-opacity="0.0" stroke="rgb(0,0,0)" stroke-width="0.9999999999999997" fill="rgb(0,0,0)" stroke-linecap="butt" stroke-miterlimit="10.0"><path d="M 70.5546,121.6000 h 5.0000 "/></g><g stroke-linejoin="miter" stroke-opacity="1.0" fill-opacity="0.0" stroke="rgb(0,0,0)" stroke-width="0.9999999999999997" fill="rgb(0,0,0)" stroke-linecap="butt" stroke-miterlimit="10.0"><path d="M 70.5546,17.0000 h 5.0000 "/></g><g stroke-linejoin="bevel" stroke-opacity="0.0" fill-opacity="1.0" stroke="rgb(0,0,0)" stroke-width="0.0" fill="rgb(0,0,0)" stroke-linecap="butt" stroke-miterlimit="10.0"><path d="M 17.4517,544.8235 ZM 18.0546,540.6765 h 3.3824 v 0.9265 h -3.3824 v -0.9265 ZM 22.0252,544.8235 ZM 25.6870,545.0000 c -1.4265,-0.0000 -2.2206,-1.2647 -2.2206 -1.2647c -0.7941,-1.2647 -0.7941,-3.6324 -0.7941 -3.6324c 0.0000,-2.3676 0.7941,-3.6029 0.7941 -3.6029c 0.7941,-1.2353 2.2206,-1.2353 2.2206 -1.2353c 1.4118,0.0000 2.2059,1.2353 2.2059 1.2353c 0.7941,1.2353 0.7941,3.6029 0.7941 3.6029c 0.0000,2.3676 -0.7941,3.6324 -0.7941 3.6324c -0.7941,1.2647 -2.2059,1.2647 -2.2059 1.2647ZM 25.6870,545.0000 ZM 25.6870,544.0294 c 0.4118,0.0000 0.7426,-0.2279 0.7426 -0.2279c 0.3309,-0.2279 0.5735,-0.7059 0.5735 -0.7059c 0.2426,-0.4779 0.3750,-1.2206 0.3750 -1.2206c 0.1324,-0.7426 0.1324,-1.7721 0.1324 -1.7721c 0.0000,-1.0294 -0.1324,-1.7647 -0.1324 -1.7647c -0.1324,-0.7353 -0.3750,-1.1985 -0.3750 -1.1985c -0.2426,-0.4632 -0.5735,-0.6838 -0.5735 -0.6838c -0.3309,-0.2206 -0.7426,-0.2206 -0.7426 -0.2206c -0.4118,-0.0000 -0.7500,0.2206 -0.7500 0.2206c -0.3382,0.2206 -0.5809,0.6838 -0.5809 0.6838c -0.2426,0.4632 -0.3750,1.1985 -0.3750 1.1985c -0.1324,0.7353 -0.1324,1.7647 -0.1324 1.7647c 0.0000,2.0588 0.5074,2.9926 0.5074 2.9926c 0.5074,0.9338 1.3309,0.9338 1.3309 0.9338ZM 29.3340,544.8235 ZM 30.2899,544.0882 c 0.0000,-0.4265 0.2574,-0.6838 0.2574 -0.6838c 0.2574,-0.2574 0.6250,-0.2574 0.6250 -0.2574c 0.3529,0.0000 0.6103,0.2574 0.6103 0.2574c 0.2574,0.2574 0.2574,0.6838 0.2574 0.6838c 0.0000,0.3971 -0.2574,0.6544 -0.2574 0.6544c -0.2574,0.2574 -0.6103,0.2574 -0.6103 0.2574c -0.3676,-0.0000 -0.6250,-0.2574 -0.6250 -0.2574c -0.2574,-0.2574 -0.2574,-0.6544 -0.2574 -0.6544ZM 32.9958,544.8235 ZM 33.5840,544.1029 c 1.0588,-1.0588 1.8824,-1.9118 1.8824 -1.9118c 0.8235,-0.8529 1.3824,-1.5809 1.3824 -1.5809c 0.5588,-0.7279 0.8529,-1.3382 0.8529 -1.3382c 0.2941,-0.6103 0.2941,-1.1838 0.2941 -1.1838c 0.0000,-0.8088 -0.4412,-1.3235 -0.4412 -1.3235c -0.4412,-0.5147 -1.3382,-0.5147 -1.3382 -0.5147c -0.5882,-0.0000 -1.0882,0.3309 -1.0882 0.3309c -0.5000,0.3309 -0.9118,0.8015 -0.9118 0.8015l -0.6912,-0.6912 c 0.5882,-0.6471 1.2500,-1.0368 1.2500 -1.0368c 0.6618,-0.3897 1.5882,-0.3897 1.5882 -0.3897c 1.3088,0.0000 2.0588,0.7574 2.0588 0.7574c 0.7500,0.7574 0.7500,2.0074 0.7500 2.0074c 0.0000,0.6618 -0.2868,1.3309 -0.2868 1.3309c -0.2868,0.6691 -0.7941,1.3824 -0.7941 1.3824c -0.5074,0.7132 -1.2059,1.4853 -1.2059 1.4853c -0.6985,0.7721 -1.5368,1.6397 -1.5368 1.6397c 0.3824,-0.0294 0.7941,-0.0588 0.7941 -0.0588c 0.4118,-0.0294 0.7794,-0.0294 0.7794 -0.0294h 2.7206 v 1.0441 h -6.0588 v -0.7206 ZM 43.2752,544.8235 ZM 44.4811,537.6765 h 1.0000 l 0.1029,1.0294 h 0.0441 c 0.4706,-0.5147 1.0221,-0.8603 1.0221 -0.8603c 0.5515,-0.3456 1.1985,-0.3456 1.1985 -0.3456c 0.8235,0.0000 1.2868,0.3603 1.2868 0.3603c 0.4632,0.3603 0.6838,1.0074 0.6838 1.0074c 0.5588,-0.6176 1.1250,-0.9926 1.1250 -0.9926c 0.5662,-0.3750 1.2279,-0.3750 1.2279 -0.3750c 1.1029,0.0000 1.6397,0.7059 1.6397 0.7059c 0.5368,0.7059 0.5368,2.0882 0.5368 2.0882v 4.5294 h -1.2059 v -4.3676 c 0.0000,-1.0147 -0.3235,-1.4632 -0.3235 -1.4632c -0.3235,-0.4485 -1.0000,-0.4485 -1.0000 -0.4485c -0.8088,-0.0000 -1.7941,1.1029 -1.7941 1.1029v 5.1765 h -1.2059 v -4.3676 c 0.0000,-1.0147 -0.3235,-1.4632 -0.3235 -1.4632c -0.3235,-0.4485 -1.0147,-0.4485 -1.0147 -0.4485c -0.8088,-0.0000 -1.7941,1.1029 -1.7941 1.1029v 5.1765 h -1.2059 v -7.1471 ZM 55.4664,544.8235 ZM 56.4811,543.2059 c 0.4706,0.3824 0.9632,0.6176 0.9632 0.6176c 0.4926,0.2353 1.1397,0.2353 1.1397 0.2353c 0.7059,0.0000 1.0588,-0.3235 1.0588 -0.3235c 0.3529,-0.3235 0.3529,-0.7941 0.3529 -0.7941c 0.0000,-0.2794 -0.1471,-0.4853 -0.1471 -0.4853c -0.1471,-0.2059 -0.3750,-0.3603 -0.3750 -0.3603c -0.2279,-0.1544 -0.5221,-0.2721 -0.5221 -0.2721l -0.5882,-0.2353 c -0.3824,-0.1324 -0.7647,-0.3015 -0.7647 -0.3015c -0.3824,-0.1691 -0.6838,-0.4118 -0.6838 -0.4118c -0.3015,-0.2426 -0.4926,-0.5662 -0.4926 -0.5662c -0.1912,-0.3235 -0.1912,-0.7794 -0.1912 -0.7794c 0.0000,-0.4265 0.1691,-0.8015 0.1691 -0.8015c 0.1691,-0.3750 0.4853,-0.6471 0.4853 -0.6471c 0.3162,-0.2721 0.7721,-0.4265 0.7721 -0.4265c 0.4559,-0.1544 1.0294,-0.1544 1.0294 -0.1544c 0.6765,0.0000 1.2426,0.2353 1.2426 0.2353c 0.5662,0.2353 0.9779,0.5735 0.9779 0.5735l -0.5735,0.7647 c -0.3676,-0.2794 -0.7647,-0.4559 -0.7647 -0.4559c -0.3971,-0.1765 -0.8676,-0.1765 -0.8676 -0.1765c -0.6765,-0.0000 -0.9926,0.3088 -0.9926 0.3088c -0.3162,0.3088 -0.3162,0.7206 -0.3162 0.7206c 0.0000,0.2500 0.1324,0.4338 0.1324 0.4338c 0.1324,0.1838 0.3529,0.3235 0.3529 0.3235c 0.2206,0.1397 0.5074,0.2500 0.5074 0.2500c 0.2868,0.1103 0.5956,0.2279 0.5956 0.2279c 0.3824,0.1471 0.7721,0.3088 0.7721 0.3088c 0.3897,0.1618 0.6985,0.4044 0.6985 0.4044c 0.3088,0.2426 0.5074,0.5956 0.5074 0.5956c 0.1985,0.3529 0.1985,0.8529 0.1985 0.8529c 0.0000,0.4412 -0.1691,0.8235 -0.1691 0.8235c -0.1691,0.3824 -0.5000,0.6765 -0.5000 0.6765c -0.3309,0.2941 -0.8235,0.4632 -0.8235 0.4632c -0.4926,0.1691 -1.1250,0.1691 -1.1250 0.1691c -0.7647,-0.0000 -1.4559,-0.2794 -1.4559 -0.2794c -0.6912,-0.2794 -1.2059,-0.7059 -1.2059 -0.7059Z"/></g><g stroke-linejoin="bevel" stroke-opacity="0.0" fill-opacity="1.0" stroke="rgb(0,0,0)" stroke-width="0.0" fill="rgb(0,0,0)" stroke-linecap="butt" stroke-miterlimit="10.0"><path d="M 33.0399,440.2235 ZM 36.7017,440.4000 c -1.4265,-0.0000 -2.2206,-1.2647 -2.2206 -1.2647c -0.7941,-1.2647 -0.7941,-3.6324 -0.7941 -3.6324c 0.0000,-2.3676 0.7941,-3.6029 0.7941 -3.6029c 0.7941,-1.2353 2.2206,-1.2353 2.2206 -1.2353c 1.4118,0.0000 2.2059,1.2353 2.2059 1.2353c 0.7941,1.2353 0.7941,3.6029 0.7941 3.6029c 0.0000,2.3676 -0.7941,3.6324 -0.7941 3.6324c -0.7941,1.2647 -2.2059,1.2647 -2.2059 1.2647ZM 36.7017,440.4000 ZM 36.7017,439.4294 c 0.4118,0.0000 0.7426,-0.2279 0.7426 -0.2279c 0.3309,-0.2279 0.5735,-0.7059 0.5735 -0.7059c 0.2426,-0.4779 0.3750,-1.2206 0.3750 -1.2206c 0.1324,-0.7426 0.1324,-1.7721 0.1324 -1.7721c 0.0000,-1.0294 -0.1324,-1.7647 -0.1324 -1.7647c -0.1324,-0.7353 -0.3750,-1.1985 -0.3750 -1.1985c -0.2426,-0.4632 -0.5735,-0.6838 -0.5735 -0.6838c -0.3309,-0.2206 -0.7426,-0.2206 -0.7426 -0.2206c -0.4118,-0.0000 -0.7500,0.2206 -0.7500 0.2206c -0.3382,0.2206 -0.5809,0.6838 -0.5809 0.6838c -0.2426,0.4632 -0.3750,1.1985 -0.3750 1.1985c -0.1324,0.7353 -0.1324,1.7647 -0.1324 1.7647c 0.0000,2.0588 0.5074,2.9926 0.5074 2.9926c 0.5074,0.9338 1.3309,0.9338 1.3309 0.9338ZM 43.3193,440.2235 ZM 44.5252,433.0765 h 1.0000 l 0.1029,1.0294 h 0.0441 c 0.4706,-0.5147 1.0221,-0.8603 1.0221 -0.8603c 0.5515,-0.3456 1.1985,-0.3456 1.1985 -0.3456c 0.8235,0.0000 1.2868,0.3603 1.2868 0.3603c 0.4632,0.3603 0.6838,1.0074 0.6838 1.0074c 0.5588,-0.6176 1.1250,-0.9926 1.1250 -0.9926c 0.5662,-0.3750 1.2279,-0.3750 1.2279 -0.3750c 1.1029,0.0000 1.6397,0.7059 1.6397 0.7059c 0.5368,0.7059 0.5368,2.0882 0.5368 2.0882v 4.5294 h -1.2059 v -4.3676 c 0.0000,-1.0147 -0.3235,-1.4632 -0.3235 -1.4632c -0.3235,-0.4485 -1.0000,-0.4485 -1.0000 -0.4485c -0.8088,-0.0000 -1.7941,1.1029 -1.7941 1.1029v 5.1765 h -1.2059 v -4.3676 c 0.0000,-1.0147 -0.3235,-1.4632 -0.3235 -1.4632c -0.3235,-0.4485 -1.0147,-0.4485 -1.0147 -0.4485c -0.8088,-0.0000 -1.7941,1.1029 -1.7941 1.1029v 5.1765 h -1.2059 v -7.1471 ZM 55.5105,440.2235 ZM 56.5252,438.6059 c 0.4706,0.3824 0.9632,0.6176 0.9632 0.6176c 0.4926,0.2353 1.1397,0.2353 1.1397 0.2353c 0.7059,0.0000 1.0588,-0.3235 1.0588 -0.3235c 0.3529,-0.3235 0.3529,-0.7941 0.3529 -0.7941c 0.0000,-0.2794 -0.1471,-0.4853 -0.1471 -0.4853c -0.1471,-0.2059 -0.3750,-0.3603 -0.3750 -0.3603c -0.2279,-0.1544 -0.5221,-0.2721 -0.5221 -0.2721l -0.5882,-0.2353 c -0.3824,-0.1324 -0.7647,-0.3015 -0.7647 -0.3015c -0.3824,-0.1691 -0.6838,-0.4118 -0.6838 -0.4118c -0.3015,-0.2426 -0.4926,-0.5662 -0.4926 -0.5662c -0.1912,-0.3235 -0.1912,-0.7794 -0.1912 -0.7794c 0.0000,-0.4265 0.1691,-0.8015 0.1691 -0.8015c 0.1691,-0.3750 0.4853,-0.6471 0.4853 -0.6471c 0.3162,-0.2721 0.7721,-0.4265 0.7721 -0.4265c 0.4559,-0.1544 1.0294,-0.1544 1.0294 -0.1544c 0.6765,0.0000 1.2426,0.2353 1.2426 0.2353c 0.5662,0.2353 0.9779,0.5735 0.9779 0.5735l -0.5735,0.7647 c -0.3676,-0.2794 -0.7647,-0.4559 -0.7647 -0.4559c -0.3971,-0.1765 -0.8676,-0.1765 -0.8676 -0.1765c -0.6765,-0.0000 -0.9926,0.3088 -0.9926 0.3088c -0.3162,0.3088 -0.3162,0.7206 -0.3162 0.7206c 0.0000,0.2500 0.1324,0.4338 0.1324 0.4338c 0.1324,0.1838 0.3529,0.3235 0.3529 0.3235c 0.2206,0.1397 0.5074,0.2500 0.5074 0.2500c 0.2868,0.1103 0.5956,0.2279 0.5956 0.2279c 0.3824,0.1471 0.7721,0.3088 0.7721 0.3088c 0.3897,0.1618 0.6985,0.4044 0.6985 0.4044c 0.3088,0.2426 0.5074,0.5956 0.5074 0.5956c 0.1985,0.3529 0.1985,0.8529 0.1985 0.8529c 0.0000,0.4412 -0.1691,0.8235 -0.1691 0.8235c -0.1691,0.3824 -0.5000,0.6765 -0.5000 0.6765c -0.3309,0.2941 -0.8235,0.4632 -0.8235 0.4632c -0.4926,0.1691 -1.1250,0.1691 -1.1250 0.1691c -0.7647,-0.0000 -1.4559,-0.2794 -1.4559 -0.2794c -0.6912,-0.2794 -1.2059,-0.7059 -1.2059 -0.7059Z"/></g><g stroke-linejoin="bevel" stroke-opacity="0.0" fill-opacity="1.0" stroke="rgb(0,0,0)" stroke-width="0.0" fill="rgb(0,0,0)" stroke-linecap="butt" stroke-miterlimit="10.0"><path d="M 22.0693,335.6235 ZM 25.7311,335.8000 c -1.4265,-0.0000 -2.2206,-1.2647 -2.2206 -1.2647c -0.7941,-1.2647 -0.7941,-3.6324 -0.7941 -3.6324c 0.0000,-2.3676 0.7941,-3.6029 0.7941 -3.6029c 0.7941,-1.2353 2.2206,-1.2353 2.2206 -1.2353c 1.4118,0.0000 2.2059,1.2353 2.2059 1.2353c 0.7941,1.2353 0.7941,3.6029 0.7941 3.6029c 0.0000,2.3676 -0.7941,3.6324 -0.7941 3.6324c -0.7941,1.2647 -2.2059,1.2647 -2.2059 1.2647ZM 25.7311,335.8000 ZM 25.7311,334.8294 c 0.4118,0.0000 0.7426,-0.2279 0.7426 -0.2279c 0.3309,-0.2279 0.5735,-0.7059 0.5735 -0.7059c 0.2426,-0.4779 0.3750,-1.2206 0.3750 -1.2206c 0.1324,-0.7426 0.1324,-1.7721 0.1324 -1.7721c 0.0000,-1.0294 -0.1324,-1.7647 -0.1324 -1.7647c -0.1324,-0.7353 -0.3750,-1.1985 -0.3750 -1.1985c -0.2426,-0.4632 -0.5735,-0.6838 -0.5735 -0.6838c -0.3309,-0.2206 -0.7426,-0.2206 -0.7426 -0.2206c -0.4118,-0.0000 -0.7500,0.2206 -0.7500 0.2206c -0.3382,0.2206 -0.5809,0.6838 -0.5809 0.6838c -0.2426,0.4632 -0.3750,1.1985 -0.3750 1.1985c -0.1324,0.7353 -0.1324,1.7647 -0.1324 1.7647c 0.0000,2.0588 0.5074,2.9926 0.5074 2.9926c 0.5074,0.9338 1.3309,0.9338 1.3309 0.9338ZM 29.3782,335.6235 ZM 30.3340,334.8882 c 0.0000,-0.4265 0.2574,-0.6838 0.2574 -0.6838c 0.2574,-0.2574 0.6250,-0.2574 0.6250 -0.2574c 0.3529,0.0000 0.6103,0.2574 0.6103 0.2574c 0.2574,0.2574 0.2574,0.6838 0.2574 0.6838c 0.0000,0.3971 -0.2574,0.6544 -0.2574 0.6544c -0.2574,0.2574 -0.6103,0.2574 -0.6103 0.2574c -0.3676,-0.0000 -0.6250,-0.2574 -0.6250 -0.2574c -0.2574,-0.2574 -0.2574,-0.6544 -0.2574 -0.6544ZM 33.0399,335.6235 ZM 33.6282,334.9029 c 1.0588,-1.0588 1.8824,-1.9118 1.8824 -1.9118c 0.8235,-0.8529 1.3824,-1.5809 1.3824 -1.5809c 0.5588,-0.7279 0.8529,-1.3382 0.8529 -1.3382c 0.2941,-0.6103 0.2941,-1.1838 0.2941 -1.1838c 0.0000,-0.8088 -0.4412,-1.3235 -0.4412 -1.3235c -0.4412,-0.5147 -1.3382,-0.5147 -1.3382 -0.5147c -0.5882,-0.0000 -1.0882,0.3309 -1.0882 0.3309c -0.5000,0.3309 -0.9118,0.8015 -0.9118 0.8015l -0.6912,-0.6912 c 0.5882,-0.6471 1.2500,-1.0368 1.2500 -1.0368c 0.6618,-0.3897 1.5882,-0.3897 1.5882 -0.3897c 1.3088,0.0000 2.0588,0.7574 2.0588 0.7574c 0.7500,0.7574 0.7500,2.0074 0.7500 2.0074c 0.0000,0.6618 -0.2868,1.3309 -0.2868 1.3309c -0.2868,0.6691 -0.7941,1.3824 -0.7941 1.3824c -0.5074,0.7132 -1.2059,1.4853 -1.2059 1.4853c -0.6985,0.7721 -1.5368,1.6397 -1.5368 1.6397c 0.3824,-0.0294 0.7941,-0.0588 0.7941 -0.0588c 0.4118,-0.0294 0.7794,-0.0294 0.7794 -0.0294h 2.7206 v 1.0441 h -6.0588 v -0.7206 ZM 43.3193,335.6235 ZM 44.5252,328.4765 h 1.0000 l 0.1029,1.0294 h 0.0441 c 0.4706,-0.5147 1.0221,-0.8603 1.0221 -0.8603c 0.5515,-0.3456 1.1985,-0.3456 1.1985 -0.3456c 0.8235,0.0000 1.2868,0.3603 1.2868 0.3603c 0.4632,0.3603 0.6838,1.0074 0.6838 1.0074c 0.5588,-0.6176 1.1250,-0.9926 1.1250 -0.9926c 0.5662,-0.3750 1.2279,-0.3750 1.2279 -0.3750c 1.1029,0.0000 1.6397,0.7059 1.6397 0.7059c 0.5368,0.7059 0.5368,2.0882 0.5368 2.0882v 4.5294 h -1.2059 v -4.3676 c 0.0000,-1.0147 -0.3235,-1.4632 -0.3235 -1.4632c -0.3235,-0.4485 -1.0000,-0.4485 -1.0000 -0.4485c -0.8088,-0.0000 -1.7941,1.1029 -1.7941 1.1029v 5.1765 h -1.2059 v -4.3676 c 0.0000,-1.0147 -0.3235,-1.4632 -0.3235 -1.4632c -0.3235,-0.4485 -1.0147,-0.4485 -1.0147 -0.4485c -0.8088,-0.0000 -1.7941,1.1029 -1.7941 1.1029v 5.1765 h -1.2059 v -7.1471 ZM 55.5105,335.6235 ZM 56.5252,334.0059 c 0.4706,0.3824 0.9632,0.6176 0.9632 0.6176c 0.4926,0.2353 1.1397,0.2353 1.1397 0.2353c 0.7059,0.0000 1.0588,-0.3235 1.0588 -0.3235c 0.3529,-0.3235 0.3529,-0.7941 0.3529 -0.7941c 0.0000,-0.2794 -0.1471,-0.4853 -0.1471 -0.4853c -0.1471,-0.2059 -0.3750,-0.3603 -0.3750 -0.3603c -0.2279,-0.1544 -0.5221,-0.2721 -0.5221 -0.2721l -0.5882,-0.2353 c -0.3824,-0.1324 -0.7647,-0.3015 -0.7647 -0.3015c -0.3824,-0.1691 -0.6838,-0.4118 -0.6838 -0.4118c -0.3015,-0.2426 -0.4926,-0.5662 -0.4926 -0.5662c -0.1912,-0.3235 -0.1912,-0.7794 -0.1912 -0.7794c 0.0000,-0.4265 0.1691,-0.8015 0.1691 -0.8015c 0.1691,-0.3750 0.4853,-0.6471 0.4853 -0.6471c 0.3162,-0.2721 0.7721,-0.4265 0.7721 -0.4265c 0.4559,-0.1544 1.0294,-0.1544 1.0294 -0.1544c 0.6765,0.0000 1.2426,0.2353 1.2426 0.2353c 0.5662,0.2353 0.9779,0.5735 0.9779 0.5735l -0.5735,0.7647 c -0.3676,-0.2794 -0.7647,-0.4559 -0.7647 -0.4559c -0.3971,-0.1765 -0.8676,-0.1765 -0.8676 -0.1765c -0.6765,-0.0000 -0.9926,0.3088 -0.9926 0.3088c -0.3162,0.3088 -0.3162,0.7206 -0.3162 0.7206c 0.0000,0.2500 0.1324,0.4338 0.1324 0.4338c 0.1324,0.1838 0.3529,0.3235 0.3529 0.3235c 0.2206,0.1397 0.5074,0.2500 0.5074 0.2500c 0.2868,0.1103 0.5956,0.2279 0.5956 0.2279c 0.3824,0.1471 0.7721,0.3088 0.7721 0.3088c 0.3897,0.1618 0.6985,0.4044 0.6985 0.4044c 0.3088,0.2426 0.5074,0.5956 0.5074 0.5956c 0.1985,0.3529 0.1985,0.8529 0.1985 0.8529c 0.0000,0.4412 -0.1691,0.8235 -0.1691 0.8235c -0.1691,0.3824 -0.5000,0.6765 -0.5000 0.6765c -0.3309,0.2941 -0.8235,0.4632 -0.8235 0.4632c -0.4926,0.1691 -1.1250,0.1691 -1.1250 0.1691c -0.7647,-0.0000 -1.4559,-0.2794 -1.4559 -0.2794c -0.6912,-0.2794 -1.2059,-0.7059 -1.2059 -0.7059Z"/></g><g stroke-linejoin="bevel" stroke-opacity="0.0" fill-opacity="1.0" stroke="rgb(0,0,0)" stroke-width="0.0" fill="rgb(0,0,0)" stroke-linecap="butt" stroke-miterlimit="10.0"><path d="M 22.0693,231.0235 ZM 25.7311,231.2000 c -1.4265,-0.0000 -2.2206,-1.2647 -2.2206 -1.2647c -0.7941,-1.2647 -0.7941,-3.6324 -0.7941 -3.6324c 0.0000,-2.3676 0.7941,-3.6029 0.7941 -3.6029c 0.7941,-1.2353 2.2206,-1.2353 2.2206 -1.2353c 1.4118,0.0000 2.2059,1.2353 2.2059 1.2353c 0.7941,1.2353 0.7941,3.6029 0.7941 3.6029c 0.0000,2.3676 -0.7941,3.6324 -0.7941 3.6324c -0.7941,1.2647 -2.2059,1.2647 -2.2059 1.2647ZM 25.7311,231.2000 ZM 25.7311,230.2294 c 0.4118,0.0000 0.7426,-0.2279 0.7426 -0.2279c 0.3309,-0.2279 0.5735,-0.7059 0.5735 -0.7059c 0.2426,-0.4779 0.3750,-1.2206 0.3750 -1.2206c 0.1324,-0.7426 0.1324,-1.7721 0.1324 -1.7721c 0.0000,-1.0294 -0.1324,-1.7647 -0.1324 -1.7647c -0.1324,-0.7353 -0.3750,-1.1985 -0.3750 -1.1985c -0.2426,-0.4632 -0.5735,-0.6838 -0.5735 -0.6838c -0.3309,-0.2206 -0.7426,-0.2206 -0.7426 -0.2206c -0.4118,-0.0000 -0.7500,0.2206 -0.7500 0.2206c -0.3382,0.2206 -0.5809,0.6838 -0.5809 0.6838c -0.2426,0.4632 -0.3750,1.1985 -0.3750 1.1985c -0.1324,0.7353 -0.1324,1.7647 -0.1324 1.7647c 0.0000,2.0588 0.5074,2.9926 0.5074 2.9926c 0.5074,0.9338 1.3309,0.9338 1.3309 0.9338ZM 29.3782,231.0235 ZM 30.3340,230.2882 c 0.0000,-0.4265 0.2574,-0.6838 0.2574 -0.6838c 0.2574,-0.2574 0.6250,-0.2574 0.6250 -0.2574c 0.3529,0.0000 0.6103,0.2574 0.6103 0.2574c 0.2574,0.2574 0.2574,0.6838 0.2574 0.6838c 0.0000,0.3971 -0.2574,0.6544 -0.2574 0.6544c -0.2574,0.2574 -0.6103,0.2574 -0.6103 0.2574c -0.3676,-0.0000 -0.6250,-0.2574 -0.6250 -0.2574c -0.2574,-0.2574 -0.2574,-0.6544 -0.2574 -0.6544ZM 33.0399,231.0235 ZM 37.5105,227.4647 v -2.7206 c 0.0000,-0.3824 0.0221,-0.9044 0.0221 -0.9044c 0.0221,-0.5221 0.0515,-0.9044 0.0515 -0.9044h -0.0588 c -0.1765,0.3382 -0.3676,0.6618 -0.3676 0.6618c -0.1912,0.3235 -0.3971,0.6618 -0.3971 0.6618l -2.1912,3.2059 h 2.9412 ZM 37.5105,227.4647 ZM 39.9370,228.4353 h -1.2794 v 2.5882 h -1.1471 v -2.5882 h -4.2206 v -0.7941 l 4.0147,-6.0000 h 1.3529 v 5.8235 h 1.2794 v 0.9706 ZM 43.3193,231.0235 ZM 44.5252,223.8765 h 1.0000 l 0.1029,1.0294 h 0.0441 c 0.4706,-0.5147 1.0221,-0.8603 1.0221 -0.8603c 0.5515,-0.3456 1.1985,-0.3456 1.1985 -0.3456c 0.8235,0.0000 1.2868,0.3603 1.2868 0.3603c 0.4632,0.3603 0.6838,1.0074 0.6838 1.0074c 0.5588,-0.6176 1.1250,-0.9926 1.1250 -0.9926c 0.5662,-0.3750 1.2279,-0.3750 1.2279 -0.3750c 1.1029,0.0000 1.6397,0.7059 1.6397 0.7059c 0.5368,0.7059 0.5368,2.0882 0.5368 2.0882v 4.5294 h -1.2059 v -4.3676 c 0.0000,-1.0147 -0.3235,-1.4632 -0.3235 -1.4632c -0.3235,-0.4485 -1.0000,-0.4485 -1.0000 -0.4485c -0.8088,-0.0000 -1.7941,1.1029 -1.7941 1.1029v 5.1765 h -1.2059 v -4.3676 c 0.0000,-1.0147 -0.3235,-1.4632 -0.3235 -1.4632c -0.3235,-0.4485 -1.0147,-0.4485 -1.0147 -0.4485c -0.8088,-0.0000 -1.7941,1.1029 -1.7941 1.1029v 5.1765 h -1.2059 v -7.1471 ZM 55.5105,231.0235 ZM 56.5252,229.4059 c 0.4706,0.3824 0.9632,0.6176 0.9632 0.6176c 0.4926,0.2353 1.1397,0.2353 1.1397 0.2353c 0.7059,0.0000 1.0588,-0.3235 1.0588 -0.3235c 0.3529,-0.3235 0.3529,-0.7941 0.3529 -0.7941c 0.0000,-0.2794 -0.1471,-0.4853 -0.1471 -0.4853c -0.1471,-0.2059 -0.3750,-0.3603 -0.3750 -0.3603c -0.2279,-0.1544 -0.5221,-0.2721 -0.5221 -0.2721l -0.5882,-0.2353 c -0.3824,-0.1324 -0.7647,-0.3015 -0.7647 -0.3015c -0.3824,-0.1691 -0.6838,-0.4118 -0.6838 -0.4118c -0.3015,-0.2426 -0.4926,-0.5662 -0.4926 -0.5662c -0.1912,-0.3235 -0.1912,-0.7794 -0.1912 -0.7794c 0.0000,-0.4265 0.1691,-0.8015 0.1691 -0.8015c 0.1691,-0.3750 0.4853,-0.6471 0.4853 -0.6471c 0.3162,-0.2721 0.7721,-0.4265 0.7721 -0.4265c 0.4559,-0.1544 1.0294,-0.1544 1.0294 -0.1544c 0.6765,0.0000 1.2426,0.2353 1.2426 0.2353c 0.5662,0.2353 0.9779,0.5735 0.9779 0.5735l -0.5735,0.7647 c -0.3676,-0.2794 -0.7647,-0.4559 -0.7647 -0.4559c -0.3971,-0.1765 -0.8676,-0.1765 -0.8676 -0.1765c -0.6765,-0.0000 -0.9926,0.3088 -0.9926 0.3088c -0.3162,0.3088 -0.3162,0.7206 -0.3162 0.7206c 0.0000,0.2500 0.1324,0.4338 0.1324 0.4338c 0.1324,0.1838 0.3529,0.3235 0.3529 0.3235c 0.2206,0.1397 0.5074,0.2500 0.5074 0.2500c 0.2868,0.1103 0.5956,0.2279 0.5956 0.2279c 0.3824,0.1471 0.7721,0.3088 0.7721 0.3088c 0.3897,0.1618 0.6985,0.4044 0.6985 0.4044c 0.3088,0.2426 0.5074,0.5956 0.5074 0.5956c 0.1985,0.3529 0.1985,0.8529 0.1985 0.8529c 0.0000,0.4412 -0.1691,0.8235 -0.1691 0.8235c -0.1691,0.3824 -0.5000,0.6765 -0.5000 0.6765c -0.3309,0.2941 -0.8235,0.4632 -0.8235 0.4632c -0.4926,0.1691 -1.1250,0.1691 -1.1250 0.1691c -0.7647,-0.0000 -1.4559,-0.2794 -1.4559 -0.2794c -0.6912,-0.2794 -1.2059,-0.7059 -1.2059 -0.7059Z"/></g><g stroke-linejoin="bevel" stroke-opacity="0.0" fill-opacity="1.0" stroke="rgb(0,0,0)" stroke-width="0.0" fill="rgb(0,0,0)" stroke-linecap="butt" stroke-miterlimit="10.0"><path d="M 22.0693,126.4235 ZM 25.7311,126.6000 c -1.4265,-0.0000 -2.2206,-1.2647 -2.2206 -1.2647c -0.7941,-1.2647 -0.7941,-3.6324 -0.7941 -3.6324c 0.0000,-2.3676 0.7941,-3.6029 0.7941 -3.6029c 0.7941,-1.2353 2.2206,-1.2353 2.2206 -1.2353c 1.4118,0.0000 2.2059,1.2353 2.2059 1.2353c 0.7941,1.2353 0.7941,3.6029 0.7941 3.6029c 0.0000,2.3676 -0.7941,3.6324 -0.7941 3.6324c -0.7941,1.2647 -2.2059,1.2647 -2.2059 1.2647ZM 25.7311,126.6000 ZM 25.7311,125.6294 c 0.4118,0.0000 0.7426,-0.2279 0.7426 -0.2279c 0.3309,-0.2279 0.5735,-0.7059 0.5735 -0.7059c 0.2426,-0.4779 0.3750,-1.2206 0.3750 -1.2206c 0.1324,-0.7426 0.1324,-1.7721 0.1324 -1.7721c 0.0000,-1.0294 -0.1324,-1.7647 -0.1324 -1.7647c -0.1324,-0.7353 -0.3750,-1.1985 -0.3750 -1.1985c -0.2426,-0.4632 -0.5735,-0.6838 -0.5735 -0.6838c -0.3309,-0.2206 -0.7426,-0.2206 -0.7426 -0.2206c -0.4118,-0.0000 -0.7500,0.2206 -0.7500 0.2206c -0.3382,0.2206 -0.5809,0.6838 -0.5809 0.6838c -0.2426,0.4632 -0.3750,1.1985 -0.3750 1.1985c -0.1324,0.7353 -0.1324,1.7647 -0.1324 1.7647c 0.0000,2.0588 0.5074,2.9926 0.5074 2.9926c 0.5074,0.9338 1.3309,0.9338 1.3309 0.9338ZM 29.3782,126.4235 ZM 30.3340,125.6882 c 0.0000,-0.4265 0.2574,-0.6838 0.2574 -0.6838c 0.2574,-0.2574 0.6250,-0.2574 0.6250 -0.2574c 0.3529,0.0000 0.6103,0.2574 0.6103 0.2574c 0.2574,0.2574 0.2574,0.6838 0.2574 0.6838c 0.0000,0.3971 -0.2574,0.6544 -0.2574 0.6544c -0.2574,0.2574 -0.6103,0.2574 -0.6103 0.2574c -0.3676,-0.0000 -0.6250,-0.2574 -0.6250 -0.2574c -0.2574,-0.2574 -0.2574,-0.6544 -0.2574 -0.6544ZM 33.0399,126.4235 ZM 36.9811,125.6441 c 0.3529,0.0000 0.6471,-0.1471 0.6471 -0.1471c 0.2941,-0.1471 0.5147,-0.4191 0.5147 -0.4191c 0.2206,-0.2721 0.3456,-0.6471 0.3456 -0.6471c 0.1250,-0.3750 0.1250,-0.8456 0.1250 -0.8456c 0.0000,-0.9265 -0.4265,-1.4559 -0.4265 -1.4559c -0.4265,-0.5294 -1.3088,-0.5294 -1.3088 -0.5294c -0.4412,-0.0000 -0.9632,0.2868 -0.9632 0.2868c -0.5221,0.2868 -0.9926,0.9485 -0.9926 0.9485c 0.1176,1.3824 0.6397,2.0956 0.6397 2.0956c 0.5221,0.7132 1.4191,0.7132 1.4191 0.7132ZM 36.9811,125.6441 ZM 38.9076,118.6147 c -0.2941,-0.3382 -0.6985,-0.5368 -0.6985 -0.5368c -0.4044,-0.1985 -0.8456,-0.1985 -0.8456 -0.1985c -0.4853,-0.0000 -0.9265,0.2059 -0.9265 0.2059c -0.4412,0.2059 -0.7794,0.6765 -0.7794 0.6765c -0.3382,0.4706 -0.5441,1.2279 -0.5441 1.2279c -0.2059,0.7574 -0.2206,1.8750 -0.2206 1.8750c 0.4412,-0.5441 1.0294,-0.8603 1.0294 -0.8603c 0.5882,-0.3162 1.1618,-0.3162 1.1618 -0.3162c 1.2206,0.0000 1.9485,0.7206 1.9485 0.7206c 0.7279,0.7206 0.7279,2.1765 0.7279 2.1765c 0.0000,0.6765 -0.2206,1.2279 -0.2206 1.2279c -0.2206,0.5515 -0.6029,0.9485 -0.6029 0.9485c -0.3824,0.3971 -0.8824,0.6176 -0.8824 0.6176c -0.5000,0.2206 -1.0735,0.2206 -1.0735 0.2206c -0.6912,-0.0000 -1.2794,-0.2794 -1.2794 -0.2794c -0.5882,-0.2794 -1.0221,-0.8456 -1.0221 -0.8456c -0.4338,-0.5662 -0.6838,-1.4118 -0.6838 -1.4118c -0.2500,-0.8456 -0.2500,-1.9779 -0.2500 -1.9779c 0.0000,-1.4118 0.2941,-2.4044 0.2941 -2.4044c 0.2941,-0.9926 0.7941,-1.6176 0.7941 -1.6176c 0.5000,-0.6250 1.1397,-0.9118 1.1397 -0.9118c 0.6397,-0.2868 1.3456,-0.2868 1.3456 -0.2868c 0.7647,0.0000 1.3162,0.2868 1.3162 0.2868c 0.5515,0.2868 0.9485,0.7132 0.9485 0.7132ZM 43.3193,126.4235 ZM 44.5252,119.2765 h 1.0000 l 0.1029,1.0294 h 0.0441 c 0.4706,-0.5147 1.0221,-0.8603 1.0221 -0.8603c 0.5515,-0.3456 1.1985,-0.3456 1.1985 -0.3456c 0.8235,0.0000 1.2868,0.3603 1.2868 0.3603c 0.4632,0.3603 0.6838,1.0074 0.6838 1.0074c 0.5588,-0.6176 1.1250,-0.9926 1.1250 -0.9926c 0.5662,-0.3750 1.2279,-0.3750 1.2279 -0.3750c 1.1029,0.0000 1.6397,0.7059 1.6397 0.7059c 0.5368,0.7059 0.5368,2.0882 0.5368 2.0882v 4.5294 h -1.2059 v -4.3676 c 0.0000,-1.0147 -0.3235,-1.4632 -0.3235 -1.4632c -0.3235,-0.4485 -1.0000,-0.4485 -1.0000 -0.4485c -0.8088,-0.0000 -1.7941,1.1029 -1.7941 1.1029v 5.1765 h -1.2059 v -4.3676 c 0.0000,-1.0147 -0.3235,-1.4632 -0.3235 -1.4632c -0.3235,-0.4485 -1.0147,-0.4485 -1.0147 -0.4485c -0.8088,-0.0000 -1.7941,1.1029 -1.7941 1.1029v 5.1765 h -1.2059 v -7.1471 ZM 55.5105,126.4235 ZM 56.5252,124.8059 c 0.4706,0.3824 0.9632,0.6176 0.9632 0.6176c 0.4926,0.2353 1.1397,0.2353 1.1397 0.2353c 0.7059,0.0000 1.0588,-0.3235 1.0588 -0.3235c 0.3529,-0.3235 0.3529,-0.7941 0.3529 -0.7941c 0.0000,-0.2794 -0.1471,-0.4853 -0.1471 -0.4853c -0.1471,-0.2059 -0.3750,-0.3603 -0.3750 -0.3603c -0.2279,-0.1544 -0.5221,-0.2721 -0.5221 -0.2721l -0.5882,-0.2353 c -0.3824,-0.1324 -0.7647,-0.3015 -0.7647 -0.3015c -0.3824,-0.1691 -0.6838,-0.4118 -0.6838 -0.4118c -0.3015,-0.2426 -0.4926,-0.5662 -0.4926 -0.5662c -0.1912,-0.3235 -0.1912,-0.7794 -0.1912 -0.7794c 0.0000,-0.4265 0.1691,-0.8015 0.1691 -0.8015c 0.1691,-0.3750 0.4853,-0.6471 0.4853 -0.6471c 0.3162,-0.2721 0.7721,-0.4265 0.7721 -0.4265c 0.4559,-0.1544 1.0294,-0.1544 1.0294 -0.1544c 0.6765,0.0000 1.2426,0.2353 1.2426 0.2353c 0.5662,0.2353 0.9779,0.5735 0.9779 0.5735l -0.5735,0.7647 c -0.3676,-0.2794 -0.7647,-0.4559 -0.7647 -0.4559c -0.3971,-0.1765 -0.8676,-0.1765 -0.8676 -0.1765c -0.6765,-0.0000 -0.9926,0.3088 -0.9926 0.3088c -0.3162,0.3088 -0.3162,0.7206 -0.3162 0.7206c 0.0000,0.2500 0.1324,0.4338 0.1324 0.4338c 0.1324,0.1838 0.3529,0.3235 0.3529 0.3235c 0.2206,0.1397 0.5074,0.2500 0.5074 0.2500c 0.2868,0.1103 0.5956,0.2279 0.5956 0.2279c 0.3824,0.1471 0.7721,0.3088 0.7721 0.3088c 0.3897,0.1618 0.6985,0.4044 0.6985 0.4044c 0.3088,0.2426 0.5074,0.5956 0.5074 0.5956c 0.1985,0.3529 0.1985,0.8529 0.1985 0.8529c 0.0000,0.4412 -0.1691,0.8235 -0.1691 0.8235c -0.1691,0.3824 -0.5000,0.6765 -0.5000 0.6765c -0.3309,0.2941 -0.8235,0.4632 -0.8235 0.4632c -0.4926,0.1691 -1.1250,0.1691 -1.1250 0.1691c -0.7647,-0.0000 -1.4559,-0.2794 -1.4559 -0.2794c -0.6912,-0.2794 -1.2059,-0.7059 -1.2059 -0.7059Z"/></g><g stroke-linejoin="bevel" stroke-opacity="0.0" fill-opacity="1.0" stroke="rgb(0,0,0)" stroke-width="0.0" fill="rgb(0,0,0)" stroke-linecap="butt" stroke-miterlimit="10.0"><path d="M 22.0693,21.8235 ZM 25.7311,22.0000 c -1.4265,-0.0000 -2.2206,-1.2647 -2.2206 -1.2647c -0.7941,-1.2647 -0.7941,-3.6324 -0.7941 -3.6324c 0.0000,-2.3676 0.7941,-3.6029 0.7941 -3.6029c 0.7941,-1.2353 2.2206,-1.2353 2.2206 -1.2353c 1.4118,0.0000 2.2059,1.2353 2.2059 1.2353c 0.7941,1.2353 0.7941,3.6029 0.7941 3.6029c 0.0000,2.3676 -0.7941,3.6324 -0.7941 3.6324c -0.7941,1.2647 -2.2059,1.2647 -2.2059 1.2647ZM 25.7311,22.0000 ZM 25.7311,21.0294 c 0.4118,0.0000 0.7426,-0.2279 0.7426 -0.2279c 0.3309,-0.2279 0.5735,-0.7059 0.5735 -0.7059c 0.2426,-0.4779 0.3750,-1.2206 0.3750 -1.2206c 0.1324,-0.7426 0.1324,-1.7721 0.1324 -1.7721c 0.0000,-1.0294 -0.1324,-1.7647 -0.1324 -1.7647c -0.1324,-0.7353 -0.3750,-1.1985 -0.3750 -1.1985c -0.2426,-0.4632 -0.5735,-0.6838 -0.5735 -0.6838c -0.3309,-0.2206 -0.7426,-0.2206 -0.7426 -0.2206c -0.4118,-0.0000 -0.7500,0.2206 -0.7500 0.2206c -0.3382,0.2206 -0.5809,0.6838 -0.5809 0.6838c -0.2426,0.4632 -0.3750,1.1985 -0.3750 1.1985c -0.1324,0.7353 -0.1324,1.7647 -0.1324 1.7647c 0.0000,2.0588 0.5074,2.9926 0.5074 2.9926c 0.5074,0.9338 1.3309,0.9338 1.3309 0.9338ZM 29.3782,21.8235 ZM 30.3340,21.0882 c 0.0000,-0.4265 0.2574,-0.6838 0.2574 -0.6838c 0.2574,-0.2574 0.6250,-0.2574 0.6250 -0.2574c 0.3529,0.0000 0.6103,0.2574 0.6103 0.2574c 0.2574,0.2574 0.2574,0.6838 0.2574 0.6838c 0.0000,0.3971 -0.2574,0.6544 -0.2574 0.6544c -0.2574,0.2574 -0.6103,0.2574 -0.6103 0.2574c -0.3676,-0.0000 -0.6250,-0.2574 -0.6250 -0.2574c -0.2574,-0.2574 -0.2574,-0.6544 -0.2574 -0.6544ZM 33.0399,21.8235 ZM 34.7311,19.3088 c 0.0000,0.3971 0.1544,0.7206 0.1544 0.7206c 0.1544,0.3235 0.4265,0.5662 0.4265 0.5662c 0.2721,0.2426 0.6397,0.3750 0.6397 0.3750c 0.3676,0.1324 0.7941,0.1324 0.7941 0.1324c 0.8235,0.0000 1.3309,-0.4559 1.3309 -0.4559c 0.5074,-0.4559 0.5074,-1.1912 0.5074 -1.1912c 0.0000,-0.4559 -0.2059,-0.7794 -0.2059 -0.7794c -0.2059,-0.3235 -0.5588,-0.5662 -0.5588 -0.5662c -0.3529,-0.2426 -0.8162,-0.4412 -0.8162 -0.4412c -0.4632,-0.1985 -0.9632,-0.4044 -0.9632 -0.4044c -0.5588,0.3824 -0.9338,0.8897 -0.9338 0.8897c -0.3750,0.5074 -0.3750,1.1544 -0.3750 1.1544ZM 34.7311,19.3088 ZM 37.3782,16.7059 c 0.4706,-0.4265 0.7279,-0.8971 0.7279 -0.8971c 0.2574,-0.4706 0.2574,-0.9853 0.2574 -0.9853c 0.0000,-0.7059 -0.4265,-1.1838 -0.4265 -1.1838c -0.4265,-0.4779 -1.2059,-0.4779 -1.2059 -0.4779c -0.6618,-0.0000 -1.0882,0.4118 -1.0882 0.4118c -0.4265,0.4118 -0.4265,1.1029 -0.4265 1.1029c 0.0000,0.4265 0.1765,0.7279 0.1765 0.7279c 0.1765,0.3015 0.4779,0.5368 0.4779 0.5368c 0.3015,0.2353 0.6912,0.4191 0.6912 0.4191c 0.3897,0.1838 0.8162,0.3456 0.8162 0.3456ZM 37.3782,16.7059 ZM 33.6429,19.4265 c 0.0000,-0.4559 0.1544,-0.8456 0.1544 -0.8456c 0.1544,-0.3897 0.3971,-0.7059 0.3971 -0.7059c 0.2426,-0.3162 0.5588,-0.5588 0.5588 -0.5588c 0.3162,-0.2426 0.6544,-0.4191 0.6544 -0.4191v -0.0588 c -0.5147,-0.3676 -0.9118,-0.8897 -0.9118 -0.8897c -0.3971,-0.5221 -0.3971,-1.2721 -0.3971 -1.2721c 0.0000,-0.5441 0.2059,-0.9853 0.2059 -0.9853c 0.2059,-0.4412 0.5588,-0.7574 0.5588 -0.7574c 0.3529,-0.3162 0.8382,-0.4926 0.8382 -0.4926c 0.4853,-0.1765 1.0588,-0.1765 1.0588 -0.1765c 0.6176,0.0000 1.1029,0.1838 1.1029 0.1838c 0.4853,0.1838 0.8309,0.5147 0.8309 0.5147c 0.3456,0.3309 0.5294,0.7941 0.5294 0.7941c 0.1838,0.4632 0.1838,1.0074 0.1838 1.0074c 0.0000,0.3676 -0.1250,0.7059 -0.1250 0.7059c -0.1250,0.3382 -0.3088,0.6324 -0.3088 0.6324c -0.1838,0.2941 -0.4118,0.5294 -0.4118 0.5294c -0.2279,0.2353 -0.4485,0.3971 -0.4485 0.3971v 0.0588 c 0.3088,0.1765 0.6029,0.4044 0.6029 0.4044c 0.2941,0.2279 0.5221,0.5147 0.5221 0.5147c 0.2279,0.2868 0.3676,0.6544 0.3676 0.6544c 0.1397,0.3676 0.1397,0.8382 0.1397 0.8382c 0.0000,0.5294 -0.2206,0.9853 -0.2206 0.9853c -0.2206,0.4559 -0.6176,0.7941 -0.6176 0.7941c -0.3971,0.3382 -0.9559,0.5294 -0.9559 0.5294c -0.5588,0.1912 -1.2353,0.1912 -1.2353 0.1912c -0.6618,-0.0000 -1.2279,-0.1912 -1.2279 -0.1912c -0.5662,-0.1912 -0.9706,-0.5368 -0.9706 -0.5368c -0.4044,-0.3456 -0.6397,-0.8162 -0.6397 -0.8162c -0.2353,-0.4706 -0.2353,-1.0294 -0.2353 -1.0294ZM 43.3193,21.8235 ZM 44.5252,14.6765 h 1.0000 l 0.1029,1.0294 h 0.0441 c 0.4706,-0.5147 1.0221,-0.8603 1.0221 -0.8603c 0.5515,-0.3456 1.1985,-0.3456 1.1985 -0.3456c 0.8235,0.0000 1.2868,0.3603 1.2868 0.3603c 0.4632,0.3603 0.6838,1.0074 0.6838 1.0074c 0.5588,-0.6176 1.1250,-0.9926 1.1250 -0.9926c 0.5662,-0.3750 1.2279,-0.3750 1.2279 -0.3750c 1.1029,0.0000 1.6397,0.7059 1.6397 0.7059c 0.5368,0.7059 0.5368,2.0882 0.5368 2.0882v 4.5294 h -1.2059 v -4.3676 c 0.0000,-1.0147 -0.3235,-1.4632 -0.3235 -1.4632c -0.3235,-0.4485 -1.0000,-0.4485 -1.0000 -0.4485c -0.8088,-0.0000 -1.7941,1.1029 -1.7941 1.1029v 5.1765 h -1.2059 v -4.3676 c 0.0000,-1.0147 -0.3235,-1.4632 -0.3235 -1.4632c -0.3235,-0.4485 -1.0147,-0.4485 -1.0147 -0.4485c -0.8088,-0.0000 -1.7941,1.1029 -1.7941 1.1029v 5.1765 h -1.2059 v -7.1471 ZM 55.5105,21.8235 ZM 56.5252,20.2059 c 0.4706,0.3824 0.9632,0.6176 0.9632 0.6176c 0.4926,0.2353 1.1397,0.2353 1.1397 0.2353c 0.7059,0.0000 1.0588,-0.3235 1.0588 -0.3235c 0.3529,-0.3235 0.3529,-0.7941 0.3529 -0.7941c 0.0000,-0.2794 -0.1471,-0.4853 -0.1471 -0.4853c -0.1471,-0.2059 -0.3750,-0.3603 -0.3750 -0.3603c -0.2279,-0.1544 -0.5221,-0.2721 -0.5221 -0.2721l -0.5882,-0.2353 c -0.3824,-0.1324 -0.7647,-0.3015 -0.7647 -0.3015c -0.3824,-0.1691 -0.6838,-0.4118 -0.6838 -0.4118c -0.3015,-0.2426 -0.4926,-0.5662 -0.4926 -0.5662c -0.1912,-0.3235 -0.1912,-0.7794 -0.1912 -0.7794c 0.0000,-0.4265 0.1691,-0.8015 0.1691 -0.8015c 0.1691,-0.3750 0.4853,-0.6471 0.4853 -0.6471c 0.3162,-0.2721 0.7721,-0.4265 0.7721 -0.4265c 0.4559,-0.1544 1.0294,-0.1544 1.0294 -0.1544c 0.6765,0.0000 1.2426,0.2353 1.2426 0.2353c 0.5662,0.2353 0.9779,0.5735 0.9779 0.5735l -0.5735,0.7647 c -0.3676,-0.2794 -0.7647,-0.4559 -0.7647 -0.4559c -0.3971,-0.1765 -0.8676,-0.1765 -0.8676 -0.1765c -0.6765,-0.0000 -0.9926,0.3088 -0.9926 0.3088c -0.3162,0.3088 -0.3162,0.7206 -0.3162 0.7206c 0.0000,0.2500 0.1324,0.4338 0.1324 0.4338c 0.1324,0.1838 0.3529,0.3235 0.3529 0.3235c 0.2206,0.1397 0.5074,0.2500 0.5074 0.2500c 0.2868,0.1103 0.5956,0.2279 0.5956 0.2279c 0.3824,0.1471 0.7721,0.3088 0.7721 0.3088c 0.3897,0.1618 0.6985,0.4044 0.6985 0.4044c 0.3088,0.2426 0.5074,0.5956 0.5074 0.5956c 0.1985,0.3529 0.1985,0.8529 0.1985 0.8529c 0.0000,0.4412 -0.1691,0.8235 -0.1691 0.8235c -0.1691,0.3824 -0.5000,0.6765 -0.5000 0.6765c -0.3309,0.2941 -0.8235,0.4632 -0.8235 0.4632c -0.4926,0.1691 -1.1250,0.1691 -1.1250 0.1691c -0.7647,-0.0000 -1.4559,-0.2794 -1.4559 -0.2794c -0.6912,-0.2794 -1.2059,-0.7059 -1.2059 -0.7059Z"/></g><g stroke-linejoin="miter" stroke-opacity="1.0" fill-opacity="0.0" stroke="rgb(0,0,0)" stroke-width="0.9999999999999997" fill="rgb(0,0,0)" stroke-linecap="square" stroke-miterlimit="10.0"><path d="M 70.5546,540.0000 h 656.2773 "/></g><g stroke-linejoin="bevel" stroke-opacity="0.0" fill-opacity="1.0" stroke="rgb(0,0,0)" stroke-width="0.0" fill="rgb(0,0,0)" stroke-linecap="butt" stroke-miterlimit="10.0"><path d="M 174.0693,566.0000 ZM 175.2290,564.1513 c 0.5378,0.4370 1.1008,0.7059 1.1008 0.7059c 0.5630,0.2689 1.3025,0.2689 1.3025 0.2689c 0.8067,0.0000 1.2101,-0.3697 1.2101 -0.3697c 0.4034,-0.3697 0.4034,-0.9076 0.4034 -0.9076c 0.0000,-0.3193 -0.1681,-0.5546 -0.1681 -0.5546c -0.1681,-0.2353 -0.4286,-0.4118 -0.4286 -0.4118c -0.2605,-0.1765 -0.5966,-0.3109 -0.5966 -0.3109l -0.6723,-0.2689 c -0.4370,-0.1513 -0.8739,-0.3445 -0.8739 -0.3445c -0.4370,-0.1933 -0.7815,-0.4706 -0.7815 -0.4706c -0.3445,-0.2773 -0.5630,-0.6471 -0.5630 -0.6471c -0.2185,-0.3697 -0.2185,-0.8908 -0.2185 -0.8908c 0.0000,-0.4874 0.1933,-0.9160 0.1933 -0.9160c 0.1933,-0.4286 0.5546,-0.7395 0.5546 -0.7395c 0.3613,-0.3109 0.8824,-0.4874 0.8824 -0.4874c 0.5210,-0.1765 1.1765,-0.1765 1.1765 -0.1765c 0.7731,0.0000 1.4202,0.2689 1.4202 0.2689c 0.6471,0.2689 1.1176,0.6555 1.1176 0.6555l -0.6555,0.8739 c -0.4202,-0.3193 -0.8739,-0.5210 -0.8739 -0.5210c -0.4538,-0.2017 -0.9916,-0.2017 -0.9916 -0.2017c -0.7731,-0.0000 -1.1345,0.3529 -1.1345 0.3529c -0.3613,0.3529 -0.3613,0.8235 -0.3613 0.8235c 0.0000,0.2857 0.1513,0.4958 0.1513 0.4958c 0.1513,0.2101 0.4034,0.3697 0.4034 0.3697c 0.2521,0.1597 0.5798,0.2857 0.5798 0.2857c 0.3277,0.1261 0.6807,0.2605 0.6807 0.2605c 0.4370,0.1681 0.8824,0.3529 0.8824 0.3529c 0.4454,0.1849 0.7983,0.4622 0.7983 0.4622c 0.3529,0.2773 0.5798,0.6807 0.5798 0.6807c 0.2269,0.4034 0.2269,0.9748 0.2269 0.9748c 0.0000,0.5042 -0.1933,0.9412 -0.1933 0.9412c -0.1933,0.4370 -0.5714,0.7731 -0.5714 0.7731c -0.3782,0.3361 -0.9412,0.5294 -0.9412 0.5294c -0.5630,0.1933 -1.2857,0.1933 -1.2857 0.1933c -0.8739,-0.0000 -1.6639,-0.3193 -1.6639 -0.3193c -0.7899,-0.3193 -1.3782,-0.8067 -1.3782 -0.8067ZM 181.1113,566.0000 ZM 182.7248,558.9580 h -1.2101 v -1.0420 l 1.2773,-0.0840 l 0.1681,-2.2857 h 1.1597 v 2.2857 h 2.2017 v 1.1261 h -2.2017 v 4.5378 c 0.0000,0.7563 0.2773,1.1681 0.2773 1.1681c 0.2773,0.4118 0.9832,0.4118 0.9832 0.4118c 0.2185,0.0000 0.4706,-0.0672 0.4706 -0.0672c 0.2521,-0.0672 0.4538,-0.1513 0.4538 -0.1513l 0.2689,1.0420 c -0.3361,0.1176 -0.7311,0.2101 -0.7311 0.2101c -0.3950,0.0924 -0.7815,0.0924 -0.7815 0.0924c -0.6555,-0.0000 -1.1008,-0.2017 -1.1008 -0.2017c -0.4454,-0.2017 -0.7227,-0.5546 -0.7227 -0.5546c -0.2773,-0.3529 -0.3950,-0.8571 -0.3950 -0.8571c -0.1176,-0.5042 -0.1176,-1.1092 -0.1176 -1.1092v -4.5210 ZM 186.7920,566.0000 ZM 188.1702,557.8319 h 1.1429 l 0.1176,1.4790 h 0.0504 c 0.4202,-0.7731 1.0168,-1.2269 1.0168 -1.2269c 0.5966,-0.4538 1.3025,-0.4538 1.3025 -0.4538c 0.4874,0.0000 0.8739,0.1681 0.8739 0.1681l -0.2689,1.2101 c -0.2017,-0.0672 -0.3697,-0.1008 -0.3697 -0.1008c -0.1681,-0.0336 -0.4202,-0.0336 -0.4202 -0.0336c -0.5210,-0.0000 -1.0840,0.4202 -1.0840 0.4202c -0.5630,0.4202 -0.9832,1.4622 -0.9832 1.4622v 5.2437 h -1.3782 v -8.1681 ZM 192.4559,566.0000 ZM 193.2290,561.9328 c 0.0000,-1.0084 0.3109,-1.8067 0.3109 -1.8067c 0.3109,-0.7983 0.8235,-1.3529 0.8235 -1.3529c 0.5126,-0.5546 1.1681,-0.8487 1.1681 -0.8487c 0.6555,-0.2941 1.3613,-0.2941 1.3613 -0.2941c 0.7731,0.0000 1.3866,0.2689 1.3866 0.2689c 0.6134,0.2689 1.0252,0.7731 1.0252 0.7731c 0.4118,0.5042 0.6303,1.2101 0.6303 1.2101c 0.2185,0.7059 0.2185,1.5798 0.2185 1.5798c 0.0000,0.4538 -0.0504,0.7563 -0.0504 0.7563h -5.5126 c 0.0840,1.3277 0.8151,2.1008 0.8151 2.1008c 0.7311,0.7731 1.9076,0.7731 1.9076 0.7731c 0.5882,0.0000 1.0840,-0.1765 1.0840 -0.1765c 0.4958,-0.1765 0.9496,-0.4622 0.9496 -0.4622l 0.4874,0.9076 c -0.5378,0.3361 -1.1933,0.5882 -1.1933 0.5882c -0.6555,0.2521 -1.4958,0.2521 -1.4958 0.2521c -0.8235,-0.0000 -1.5378,-0.2941 -1.5378 -0.2941c -0.7143,-0.2941 -1.2437,-0.8403 -1.2437 -0.8403c -0.5294,-0.5462 -0.8319,-1.3361 -0.8319 -1.3361c -0.3025,-0.7899 -0.3025,-1.7983 -0.3025 -1.7983ZM 193.2290,561.9328 ZM 198.9433,561.3109 c 0.0000,-1.2605 -0.5294,-1.9244 -0.5294 -1.9244c -0.5294,-0.6639 -1.4874,-0.6639 -1.4874 -0.6639c -0.4370,-0.0000 -0.8319,0.1765 -0.8319 0.1765c -0.3950,0.1765 -0.7143,0.5042 -0.7143 0.5042c -0.3193,0.3277 -0.5294,0.8067 -0.5294 0.8067c -0.2101,0.4790 -0.2773,1.1008 -0.2773 1.1008h 4.3697 ZM 200.5567,566.0000 ZM 201.5315,563.8824 c 0.0000,-1.3445 1.2017,-2.0588 1.2017 -2.0588c 1.2017,-0.7143 3.8235,-1.0000 3.8235 -1.0000c 0.0000,-0.3866 -0.0756,-0.7563 -0.0756 -0.7563c -0.0756,-0.3697 -0.2689,-0.6555 -0.2689 -0.6555c -0.1933,-0.2857 -0.5126,-0.4622 -0.5126 -0.4622c -0.3193,-0.1765 -0.8235,-0.1765 -0.8235 -0.1765c -0.7227,-0.0000 -1.3361,0.2689 -1.3361 0.2689c -0.6134,0.2689 -1.1008,0.6050 -1.1008 0.6050l -0.5546,-0.9580 c 0.5714,-0.3697 1.3950,-0.7143 1.3950 -0.7143c 0.8235,-0.3445 1.8151,-0.3445 1.8151 -0.3445c 1.4958,0.0000 2.1681,0.9160 2.1681 0.9160c 0.6723,0.9160 0.6723,2.4454 0.6723 2.4454v 5.0084 h -1.1429 l -0.1176,-0.9748 h -0.0336 c -0.5882,0.4874 -1.2689,0.8319 -1.2689 0.8319c -0.6807,0.3445 -1.4370,0.3445 -1.4370 0.3445c -1.0420,-0.0000 -1.7227,-0.6050 -1.7227 -0.6050c -0.6807,-0.6050 -0.6807,-1.7143 -0.6807 -1.7143ZM 201.5315,563.8824 ZM 202.8929,563.7815 c 0.0000,0.7059 0.4118,1.0084 0.4118 1.0084c 0.4118,0.3025 1.0168,0.3025 1.0168 0.3025c 0.5882,0.0000 1.1176,-0.2773 1.1176 -0.2773c 0.5294,-0.2773 1.1176,-0.8151 1.1176 -0.8151v -2.2689 c -1.0252,0.1345 -1.7311,0.3193 -1.7311 0.3193c -0.7059,0.1849 -1.1345,0.4370 -1.1345 0.4370c -0.4286,0.2521 -0.6134,0.5798 -0.6134 0.5798c -0.1849,0.3277 -0.1849,0.7143 -0.1849 0.7143ZM 209.1618,566.0000 ZM 210.5399,557.8319 h 1.1429 l 0.1176,1.1765 h 0.0504 c 0.5378,-0.5882 1.1681,-0.9832 1.1681 -0.9832c 0.6303,-0.3950 1.3697,-0.3950 1.3697 -0.3950c 0.9412,0.0000 1.4706,0.4118 1.4706 0.4118c 0.5294,0.4118 0.7815,1.1513 0.7815 1.1513c 0.6387,-0.7059 1.2857,-1.1345 1.2857 -1.1345c 0.6471,-0.4286 1.4034,-0.4286 1.4034 -0.4286c 1.2605,0.0000 1.8739,0.8067 1.8739 0.8067c 0.6134,0.8067 0.6134,2.3866 0.6134 2.3866v 5.1765 h -1.3782 v -4.9916 c 0.0000,-1.1597 -0.3697,-1.6723 -0.3697 -1.6723c -0.3697,-0.5126 -1.1429,-0.5126 -1.1429 -0.5126c -0.9244,-0.0000 -2.0504,1.2605 -2.0504 1.2605v 5.9160 h -1.3782 v -4.9916 c 0.0000,-1.1597 -0.3697,-1.6723 -0.3697 -1.6723c -0.3697,-0.5126 -1.1597,-0.5126 -1.1597 -0.5126c -0.9244,-0.0000 -2.0504,1.2605 -2.0504 1.2605v 5.9160 h -1.3782 v -8.1681 ZM 223.0945,566.0000 ZM 224.4727,554.0336 h 1.3782 v 10.4202 c 0.0000,0.3361 0.1176,0.4706 0.1176 0.4706c 0.1176,0.1345 0.2689,0.1345 0.2689 0.1345h 0.1261 c 0.0000,0.0000 0.1765,-0.0336 0.1765 -0.0336l 0.1849,1.0420 c -0.1345,0.0672 -0.3193,0.1008 -0.3193 0.1008c -0.1849,0.0336 -0.4706,0.0336 -0.4706 0.0336c -0.7899,-0.0000 -1.1261,-0.4706 -1.1261 -0.4706c -0.3361,-0.4706 -0.3361,-1.3782 -0.3361 -1.3782v -10.3193 ZM 227.3803,566.0000 ZM 228.2038,568.2521 l 0.3025,0.0756 c 0.0000,0.0000 0.3193,0.0420 0.3193 0.0420c 0.7059,0.0000 1.1513,-0.4958 1.1513 -0.4958c 0.4454,-0.4958 0.6975,-1.2521 0.6975 -1.2521l 0.1849,-0.6050 l -3.2773,-8.1849 h 1.4286 l 1.6639,4.5210 c 0.1849,0.5378 0.3950,1.1345 0.3950 1.1345c 0.2101,0.5966 0.3950,1.1681 0.3950 1.1681h 0.0672 c 0.1849,-0.5546 0.3529,-1.1597 0.3529 -1.1597c 0.1681,-0.6050 0.3361,-1.1429 0.3361 -1.1429l 1.4622,-4.5210 h 1.3445 l -3.0756,8.8403 c -0.2185,0.6050 -0.4874,1.1261 -0.4874 1.1261c -0.2689,0.5210 -0.6387,0.8992 -0.6387 0.8992c -0.3697,0.3782 -0.8403,0.5966 -0.8403 0.5966c -0.4706,0.2185 -1.0924,0.2185 -1.0924 0.2185c -0.2857,-0.0000 -0.5210,-0.0420 -0.5210 -0.0420c -0.2353,-0.0420 -0.4370,-0.1261 -0.4370 -0.1261l 0.2689,-1.0924 h 0.0000 ZM 235.2290,566.0000 ZM 238.8256,568.9580 c -1.0420,-1.6807 -1.6303,-3.5462 -1.6303 -3.5462c -0.5882,-1.8655 -0.5882,-4.0840 -0.5882 -4.0840c 0.0000,-2.2185 0.5882,-4.0756 0.5882 -4.0756c 0.5882,-1.8571 1.6303,-3.5546 1.6303 -3.5546l 0.8571,0.4034 c -0.9748,1.6134 -1.4538,3.4538 -1.4538 3.4538c -0.4790,1.8403 -0.4790,3.7731 -0.4790 3.7731c 0.0000,1.9328 0.4790,3.7731 0.4790 3.7731c 0.4790,1.8403 1.4538,3.4538 1.4538 3.4538l -0.8571,0.4034 h 0.0000 ZM 240.3214,566.0000 ZM 241.6492,564.8571 h 2.4538 v -7.8992 h -1.9496 v -0.8908 c 0.7395,-0.1345 1.2857,-0.3277 1.2857 -0.3277c 0.5462,-0.1933 0.9832,-0.4622 0.9832 -0.4622h 1.0588 v 9.5798 h 2.2185 v 1.1429 h -6.0504 v -1.1429 ZM 248.6744,566.0000 ZM 249.3130,568.5546 c 0.9748,-1.6134 1.4538,-3.4538 1.4538 -3.4538c 0.4790,-1.8403 0.4790,-3.7731 0.4790 -3.7731c 0.0000,-1.9328 -0.4790,-3.7731 -0.4790 -3.7731c -0.4790,-1.8403 -1.4538,-3.4538 -1.4538 -3.4538l 0.8571,-0.4034 c 1.0420,1.6975 1.6303,3.5546 1.6303 3.5546c 0.5882,1.8571 0.5882,4.0756 0.5882 4.0756c 0.0000,2.2185 -0.5882,4.0840 -0.5882 4.0840c -0.5882,1.8655 -1.6303,3.5462 -1.6303 3.5462l -0.8571,-0.4034 h 0.0000 ZM 253.7668,566.0000 ZM 257.3634,568.9580 c -1.0420,-1.6807 -1.6303,-3.5462 -1.6303 -3.5462c -0.5882,-1.8655 -0.5882,-4.0840 -0.5882 -4.0840c 0.0000,-2.2185 0.5882,-4.0756 0.5882 -4.0756c 0.5882,-1.8571 1.6303,-3.5546 1.6303 -3.5546l 0.8571,0.4034 c -0.9748,1.6134 -1.4538,3.4538 -1.4538 3.4538c -0.4790,1.8403 -0.4790,3.7731 -0.4790 3.7731c 0.0000,1.9328 0.4790,3.7731 0.4790 3.7731c 0.4790,1.8403 1.4538,3.4538 1.4538 3.4538l -0.8571,0.4034 h 0.0000 ZM 258.8592,566.0000 ZM 260.2374,554.0336 h 1.3782 v 3.2605 l -0.0336,1.4790 c 0.5546,-0.4874 1.2101,-0.8151 1.2101 -0.8151c 0.6555,-0.3277 1.3445,-0.3277 1.3445 -0.3277c 0.7899,0.0000 1.3950,0.2941 1.3950 0.2941c 0.6050,0.2941 1.0168,0.8403 1.0168 0.8403c 0.4118,0.5462 0.6218,1.3109 0.6218 1.3109c 0.2101,0.7647 0.2101,1.7059 0.2101 1.7059c 0.0000,1.0420 -0.2857,1.8655 -0.2857 1.8655c -0.2857,0.8235 -0.7731,1.3950 -0.7731 1.3950c -0.4874,0.5714 -1.1261,0.8655 -1.1261 0.8655c -0.6387,0.2941 -1.3445,0.2941 -1.3445 0.2941c -0.5714,-0.0000 -1.1849,-0.2605 -1.1849 -0.2605c -0.6134,-0.2605 -1.1513,-0.7479 -1.1513 -0.7479h -0.0504 l -0.1176,0.8067 h -1.1092 v -11.9664 ZM 260.2374,554.0336 ZM 261.6155,564.1849 c 0.5378,0.4706 1.0672,0.6639 1.0672 0.6639c 0.5294,0.1933 0.9328,0.1933 0.9328 0.1933c 0.5042,0.0000 0.9328,-0.2269 0.9328 -0.2269c 0.4286,-0.2269 0.7395,-0.6387 0.7395 -0.6387c 0.3109,-0.4118 0.4874,-1.0168 0.4874 -1.0168c 0.1765,-0.6050 0.1765,-1.3613 0.1765 -1.3613c 0.0000,-0.6723 -0.1176,-1.2269 -0.1176 -1.2269c -0.1176,-0.5546 -0.3782,-0.9496 -0.3782 -0.9496c -0.2605,-0.3950 -0.6723,-0.6134 -0.6723 -0.6134c -0.4118,-0.2185 -0.9832,-0.2185 -0.9832 -0.2185c -0.9916,-0.0000 -2.1849,1.1092 -2.1849 1.1092v 4.2857 ZM 267.9517,566.0000 ZM 268.9265,563.8824 c 0.0000,-1.3445 1.2017,-2.0588 1.2017 -2.0588c 1.2017,-0.7143 3.8235,-1.0000 3.8235 -1.0000c 0.0000,-0.3866 -0.0756,-0.7563 -0.0756 -0.7563c -0.0756,-0.3697 -0.2689,-0.6555 -0.2689 -0.6555c -0.1933,-0.2857 -0.5126,-0.4622 -0.5126 -0.4622c -0.3193,-0.1765 -0.8235,-0.1765 -0.8235 -0.1765c -0.7227,-0.0000 -1.3361,0.2689 -1.3361 0.2689c -0.6134,0.2689 -1.1008,0.6050 -1.1008 0.6050l -0.5546,-0.9580 c 0.5714,-0.3697 1.3950,-0.7143 1.3950 -0.7143c 0.8235,-0.3445 1.8151,-0.3445 1.8151 -0.3445c 1.4958,0.0000 2.1681,0.9160 2.1681 0.9160c 0.6723,0.9160 0.6723,2.4454 0.6723 2.4454v 5.0084 h -1.1429 l -0.1176,-0.9748 h -0.0336 c -0.5882,0.4874 -1.2689,0.8319 -1.2689 0.8319c -0.6807,0.3445 -1.4370,0.3445 -1.4370 0.3445c -1.0420,-0.0000 -1.7227,-0.6050 -1.7227 -0.6050c -0.6807,-0.6050 -0.6807,-1.7143 -0.6807 -1.7143ZM 268.9265,563.8824 ZM 270.2878,563.7815 c 0.0000,0.7059 0.4118,1.0084 0.4118 1.0084c 0.4118,0.3025 1.0168,0.3025 1.0168 0.3025c 0.5882,0.0000 1.1176,-0.2773 1.1176 -0.2773c 0.5294,-0.2773 1.1176,-0.8151 1.1176 -0.8151v -2.2689 c -1.0252,0.1345 -1.7311,0.3193 -1.7311 0.3193c -0.7059,0.1849 -1.1345,0.4370 -1.1345 0.4370c -0.4286,0.2521 -0.6134,0.5798 -0.6134 0.5798c -0.1849,0.3277 -0.1849,0.7143 -0.1849 0.7143ZM 276.5567,566.0000 ZM 277.7164,564.1513 c 0.5378,0.4370 1.1008,0.7059 1.1008 0.7059c 0.5630,0.2689 1.3025,0.2689 1.3025 0.2689c 0.8067,0.0000 1.2101,-0.3697 1.2101 -0.3697c 0.4034,-0.3697 0.4034,-0.9076 0.4034 -0.9076c 0.0000,-0.3193 -0.1681,-0.5546 -0.1681 -0.5546c -0.1681,-0.2353 -0.4286,-0.4118 -0.4286 -0.4118c -0.2605,-0.1765 -0.5966,-0.3109 -0.5966 -0.3109l -0.6723,-0.2689 c -0.4370,-0.1513 -0.8739,-0.3445 -0.8739 -0.3445c -0.4370,-0.1933 -0.7815,-0.4706 -0.7815 -0.4706c -0.3445,-0.2773 -0.5630,-0.6471 -0.5630 -0.6471c -0.2185,-0.3697 -0.2185,-0.8908 -0.2185 -0.8908c 0.0000,-0.4874 0.1933,-0.9160 0.1933 -0.9160c 0.1933,-0.4286 0.5546,-0.7395 0.5546 -0.7395c 0.3613,-0.3109 0.8824,-0.4874 0.8824 -0.4874c 0.5210,-0.1765 1.1765,-0.1765 1.1765 -0.1765c 0.7731,0.0000 1.4202,0.2689 1.4202 0.2689c 0.6471,0.2689 1.1176,0.6555 1.1176 0.6555l -0.6555,0.8739 c -0.4202,-0.3193 -0.8739,-0.5210 -0.8739 -0.5210c -0.4538,-0.2017 -0.9916,-0.2017 -0.9916 -0.2017c -0.7731,-0.0000 -1.1345,0.3529 -1.1345 0.3529c -0.3613,0.3529 -0.3613,0.8235 -0.3613 0.8235c 0.0000,0.2857 0.1513,0.4958 0.1513 0.4958c 0.1513,0.2101 0.4034,0.3697 0.4034 0.3697c 0.2521,0.1597 0.5798,0.2857 0.5798 0.2857c 0.3277,0.1261 0.6807,0.2605 0.6807 0.2605c 0.4370,0.1681 0.8824,0.3529 0.8824 0.3529c 0.4454,0.1849 0.7983,0.4622 0.7983 0.4622c 0.3529,0.2773 0.5798,0.6807 0.5798 0.6807c 0.2269,0.4034 0.2269,0.9748 0.2269 0.9748c 0.0000,0.5042 -0.1933,0.9412 -0.1933 0.9412c -0.1933,0.4370 -0.5714,0.7731 -0.5714 0.7731c -0.3782,0.3361 -0.9412,0.5294 -0.9412 0.5294c -0.5630,0.1933 -1.2857,0.1933 -1.2857 0.1933c -0.8739,-0.0000 -1.6639,-0.3193 -1.6639 -0.3193c -0.7899,-0.3193 -1.3782,-0.8067 -1.3782 -0.8067ZM 283.5987,566.0000 ZM 284.3718,561.9328 c 0.0000,-1.0084 0.3109,-1.8067 0.3109 -1.8067c 0.3109,-0.7983 0.8235,-1.3529 0.8235 -1.3529c 0.5126,-0.5546 1.1681,-0.8487 1.1681 -0.8487c 0.6555,-0.2941 1.3613,-0.2941 1.3613 -0.2941c 0.7731,0.0000 1.3866,0.2689 1.3866 0.2689c 0.6134,0.2689 1.0252,0.7731 1.0252 0.7731c 0.4118,0.5042 0.6303,1.2101 0.6303 1.2101c 0.2185,0.7059 0.2185,1.5798 0.2185 1.5798c 0.0000,0.4538 -0.0504,0.7563 -0.0504 0.7563h -5.5126 c 0.0840,1.3277 0.8151,2.1008 0.8151 2.1008c 0.7311,0.7731 1.9076,0.7731 1.9076 0.7731c 0.5882,0.0000 1.0840,-0.1765 1.0840 -0.1765c 0.4958,-0.1765 0.9496,-0.4622 0.9496 -0.4622l 0.4874,0.9076 c -0.5378,0.3361 -1.1933,0.5882 -1.1933 0.5882c -0.6555,0.2521 -1.4958,0.2521 -1.4958 0.2521c -0.8235,-0.0000 -1.5378,-0.2941 -1.5378 -0.2941c -0.7143,-0.2941 -1.2437,-0.8403 -1.2437 -0.8403c -0.5294,-0.5462 -0.8319,-1.3361 -0.8319 -1.3361c -0.3025,-0.7899 -0.3025,-1.7983 -0.3025 -1.7983ZM 284.3718,561.9328 ZM 290.0861,561.3109 c 0.0000,-1.2605 -0.5294,-1.9244 -0.5294 -1.9244c -0.5294,-0.6639 -1.4874,-0.6639 -1.4874 -0.6639c -0.4370,-0.0000 -0.8319,0.1765 -0.8319 0.1765c -0.3950,0.1765 -0.7143,0.5042 -0.7143 0.5042c -0.3193,0.3277 -0.5294,0.8067 -0.5294 0.8067c -0.2101,0.4790 -0.2773,1.1008 -0.2773 1.1008h 4.3697 ZM 291.9349,566.0000 ZM 292.5735,568.5546 c 0.9748,-1.6134 1.4538,-3.4538 1.4538 -3.4538c 0.4790,-1.8403 0.4790,-3.7731 0.4790 -3.7731c 0.0000,-1.9328 -0.4790,-3.7731 -0.4790 -3.7731c -0.4790,-1.8403 -1.4538,-3.4538 -1.4538 -3.4538l 0.8571,-0.4034 c 1.0420,1.6975 1.6303,3.5546 1.6303 3.5546c 0.5882,1.8571 0.5882,4.0756 0.5882 4.0756c 0.0000,2.2185 -0.5882,4.0840 -0.5882 4.0840c -0.5882,1.8655 -1.6303,3.5462 -1.6303 3.5462l -0.8571,-0.4034 h 0.0000 Z"/></g><g stroke-linejoin="bevel" stroke-opacity="0.0" fill-opacity="1.0" stroke="rgb(0,0,0)" stroke-width="0.0" fill="rgb(0,0,0)" stroke-linecap="butt" stroke-miterlimit="10.0"><path d="M 499.5945,566.0000 ZM 500.7542,564.1513 c 0.5378,0.4370 1.1008,0.7059 1.1008 0.7059c 0.5630,0.2689 1.3025,0.2689 1.3025 0.2689c 0.8067,0.0000 1.2101,-0.3697 1.2101 -0.3697c 0.4034,-0.3697 0.4034,-0.9076 0.4034 -0.9076c 0.0000,-0.3193 -0.1681,-0.5546 -0.1681 -0.5546c -0.1681,-0.2353 -0.4286,-0.4118 -0.4286 -0.4118c -0.2605,-0.1765 -0.5966,-0.3109 -0.5966 -0.3109l -0.6723,-0.2689 c -0.4370,-0.1513 -0.8739,-0.3445 -0.8739 -0.3445c -0.4370,-0.1933 -0.7815,-0.4706 -0.7815 -0.4706c -0.3445,-0.2773 -0.5630,-0.6471 -0.5630 -0.6471c -0.2185,-0.3697 -0.2185,-0.8908 -0.2185 -0.8908c 0.0000,-0.4874 0.1933,-0.9160 0.1933 -0.9160c 0.1933,-0.4286 0.5546,-0.7395 0.5546 -0.7395c 0.3613,-0.3109 0.8824,-0.4874 0.8824 -0.4874c 0.5210,-0.1765 1.1765,-0.1765 1.1765 -0.1765c 0.7731,0.0000 1.4202,0.2689 1.4202 0.2689c 0.6471,0.2689 1.1176,0.6555 1.1176 0.6555l -0.6555,0.8739 c -0.4202,-0.3193 -0.8739,-0.5210 -0.8739 -0.5210c -0.4538,-0.2017 -0.9916,-0.2017 -0.9916 -0.2017c -0.7731,-0.0000 -1.1345,0.3529 -1.1345 0.3529c -0.3613,0.3529 -0.3613,0.8235 -0.3613 0.8235c 0.0000,0.2857 0.1513,0.4958 0.1513 0.4958c 0.1513,0.2101 0.4034,0.3697 0.4034 0.3697c 0.2521,0.1597 0.5798,0.2857 0.5798 0.2857c 0.3277,0.1261 0.6807,0.2605 0.6807 0.2605c 0.4370,0.1681 0.8824,0.3529 0.8824 0.3529c 0.4454,0.1849 0.7983,0.4622 0.7983 0.4622c 0.3529,0.2773 0.5798,0.6807 0.5798 0.6807c 0.2269,0.4034 0.2269,0.9748 0.2269 0.9748c 0.0000,0.5042 -0.1933,0.9412 -0.1933 0.9412c -0.1933,0.4370 -0.5714,0.7731 -0.5714 0.7731c -0.3782,0.3361 -0.9412,0.5294 -0.9412 0.5294c -0.5630,0.1933 -1.2857,0.1933 -1.2857 0.1933c -0.8739,-0.0000 -1.6639,-0.3193 -1.6639 -0.3193c -0.7899,-0.3193 -1.3782,-0.8067 -1.3782 -0.8067ZM 506.6366,566.0000 ZM 508.2500,558.9580 h -1.2101 v -1.0420 l 1.2773,-0.0840 l 0.1681,-2.2857 h 1.1597 v 2.2857 h 2.2017 v 1.1261 h -2.2017 v 4.5378 c 0.0000,0.7563 0.2773,1.1681 0.2773 1.1681c 0.2773,0.4118 0.9832,0.4118 0.9832 0.4118c 0.2185,0.0000 0.4706,-0.0672 0.4706 -0.0672c 0.2521,-0.0672 0.4538,-0.1513 0.4538 -0.1513l 0.2689,1.0420 c -0.3361,0.1176 -0.7311,0.2101 -0.7311 0.2101c -0.3950,0.0924 -0.7815,0.0924 -0.7815 0.0924c -0.6555,-0.0000 -1.1008,-0.2017 -1.1008 -0.2017c -0.4454,-0.2017 -0.7227,-0.5546 -0.7227 -0.5546c -0.2773,-0.3529 -0.3950,-0.8571 -0.3950 -0.8571c -0.1176,-0.5042 -0.1176,-1.1092 -0.1176 -1.1092v -4.5210 ZM 512.3172,566.0000 ZM 513.6954,557.8319 h 1.1429 l 0.1176,1.4790 h 0.0504 c 0.4202,-0.7731 1.0168,-1.2269 1.0168 -1.2269c 0.5966,-0.4538 1.3025,-0.4538 1.3025 -0.4538c 0.4874,0.0000 0.8739,0.1681 0.8739 0.1681l -0.2689,1.2101 c -0.2017,-0.0672 -0.3697,-0.1008 -0.3697 -0.1008c -0.1681,-0.0336 -0.4202,-0.0336 -0.4202 -0.0336c -0.5210,-0.0000 -1.0840,0.4202 -1.0840 0.4202c -0.5630,0.4202 -0.9832,1.4622 -0.9832 1.4622v 5.2437 h -1.3782 v -8.1681 ZM 517.9811,566.0000 ZM 518.7542,561.9328 c 0.0000,-1.0084 0.3109,-1.8067 0.3109 -1.8067c 0.3109,-0.7983 0.8235,-1.3529 0.8235 -1.3529c 0.5126,-0.5546 1.1681,-0.8487 1.1681 -0.8487c 0.6555,-0.2941 1.3613,-0.2941 1.3613 -0.2941c 0.7731,0.0000 1.3866,0.2689 1.3866 0.2689c 0.6134,0.2689 1.0252,0.7731 1.0252 0.7731c 0.4118,0.5042 0.6303,1.2101 0.6303 1.2101c 0.2185,0.7059 0.2185,1.5798 0.2185 1.5798c 0.0000,0.4538 -0.0504,0.7563 -0.0504 0.7563h -5.5126 c 0.0840,1.3277 0.8151,2.1008 0.8151 2.1008c 0.7311,0.7731 1.9076,0.7731 1.9076 0.7731c 0.5882,0.0000 1.0840,-0.1765 1.0840 -0.1765c 0.4958,-0.1765 0.9496,-0.4622 0.9496 -0.4622l 0.4874,0.9076 c -0.5378,0.3361 -1.1933,0.5882 -1.1933 0.5882c -0.6555,0.2521 -1.4958,0.2521 -1.4958 0.2521c -0.8235,-0.0000 -1.5378,-0.2941 -1.5378 -0.2941c -0.7143,-0.2941 -1.2437,-0.8403 -1.2437 -0.8403c -0.5294,-0.5462 -0.8319,-1.3361 -0.8319 -1.3361c -0.3025,-0.7899 -0.3025,-1.7983 -0.3025 -1.7983ZM 518.7542,561.9328 ZM 524.4685,561.3109 c 0.0000,-1.2605 -0.5294,-1.9244 -0.5294 -1.9244c -0.5294,-0.6639 -1.4874,-0.6639 -1.4874 -0.6639c -0.4370,-0.0000 -0.8319,0.1765 -0.8319 0.1765c -0.3950,0.1765 -0.7143,0.5042 -0.7143 0.5042c -0.3193,0.3277 -0.5294,0.8067 -0.5294 0.8067c -0.2101,0.4790 -0.2773,1.1008 -0.2773 1.1008h 4.3697 ZM 526.0819,566.0000 ZM 527.0567,563.8824 c 0.0000,-1.3445 1.2017,-2.0588 1.2017 -2.0588c 1.2017,-0.7143 3.8235,-1.0000 3.8235 -1.0000c 0.0000,-0.3866 -0.0756,-0.7563 -0.0756 -0.7563c -0.0756,-0.3697 -0.2689,-0.6555 -0.2689 -0.6555c -0.1933,-0.2857 -0.5126,-0.4622 -0.5126 -0.4622c -0.3193,-0.1765 -0.8235,-0.1765 -0.8235 -0.1765c -0.7227,-0.0000 -1.3361,0.2689 -1.3361 0.2689c -0.6134,0.2689 -1.1008,0.6050 -1.1008 0.6050l -0.5546,-0.9580 c 0.5714,-0.3697 1.3950,-0.7143 1.3950 -0.7143c 0.8235,-0.3445 1.8151,-0.3445 1.8151 -0.3445c 1.4958,0.0000 2.1681,0.9160 2.1681 0.9160c 0.6723,0.9160 0.6723,2.4454 0.6723 2.4454v 5.0084 h -1.1429 l -0.1176,-0.9748 h -0.0336 c -0.5882,0.4874 -1.2689,0.8319 -1.2689 0.8319c -0.6807,0.3445 -1.4370,0.3445 -1.4370 0.3445c -1.0420,-0.0000 -1.7227,-0.6050 -1.7227 -0.6050c -0.6807,-0.6050 -0.6807,-1.7143 -0.6807 -1.7143ZM 527.0567,563.8824 ZM 528.4181,563.7815 c 0.0000,0.7059 0.4118,1.0084 0.4118 1.0084c 0.4118,0.3025 1.0168,0.3025 1.0168 0.3025c 0.5882,0.0000 1.1176,-0.2773 1.1176 -0.2773c 0.5294,-0.2773 1.1176,-0.8151 1.1176 -0.8151v -2.2689 c -1.0252,0.1345 -1.7311,0.3193 -1.7311 0.3193c -0.7059,0.1849 -1.1345,0.4370 -1.1345 0.4370c -0.4286,0.2521 -0.6134,0.5798 -0.6134 0.5798c -0.1849,0.3277 -0.1849,0.7143 -0.1849 0.7143ZM 534.6870,566.0000 ZM 536.0651,557.8319 h 1.1429 l 0.1176,1.1765 h 0.0504 c 0.5378,-0.5882 1.1681,-0.9832 1.1681 -0.9832c 0.6303,-0.3950 1.3697,-0.3950 1.3697 -0.3950c 0.9412,0.0000 1.4706,0.4118 1.4706 0.4118c 0.5294,0.4118 0.7815,1.1513 0.7815 1.1513c 0.6387,-0.7059 1.2857,-1.1345 1.2857 -1.1345c 0.6471,-0.4286 1.4034,-0.4286 1.4034 -0.4286c 1.2605,0.0000 1.8739,0.8067 1.8739 0.8067c 0.6134,0.8067 0.6134,2.3866 0.6134 2.3866v 5.1765 h -1.3782 v -4.9916 c 0.0000,-1.1597 -0.3697,-1.6723 -0.3697 -1.6723c -0.3697,-0.5126 -1.1429,-0.5126 -1.1429 -0.5126c -0.9244,-0.0000 -2.0504,1.2605 -2.0504 1.2605v 5.9160 h -1.3782 v -4.9916 c 0.0000,-1.1597 -0.3697,-1.6723 -0.3697 -1.6723c -0.3697,-0.5126 -1.1597,-0.5126 -1.1597 -0.5126c -0.9244,-0.0000 -2.0504,1.2605 -2.0504 1.2605v 5.9160 h -1.3782 v -8.1681 ZM 548.6197,566.0000 ZM 549.9979,554.0336 h 1.3782 v 10.4202 c 0.0000,0.3361 0.1176,0.4706 0.1176 0.4706c 0.1176,0.1345 0.2689,0.1345 0.2689 0.1345h 0.1261 c 0.0000,0.0000 0.1765,-0.0336 0.1765 -0.0336l 0.1849,1.0420 c -0.1345,0.0672 -0.3193,0.1008 -0.3193 0.1008c -0.1849,0.0336 -0.4706,0.0336 -0.4706 0.0336c -0.7899,-0.0000 -1.1261,-0.4706 -1.1261 -0.4706c -0.3361,-0.4706 -0.3361,-1.3782 -0.3361 -1.3782v -10.3193 ZM 552.9055,566.0000 ZM 553.7290,568.2521 l 0.3025,0.0756 c 0.0000,0.0000 0.3193,0.0420 0.3193 0.0420c 0.7059,0.0000 1.1513,-0.4958 1.1513 -0.4958c 0.4454,-0.4958 0.6975,-1.2521 0.6975 -1.2521l 0.1849,-0.6050 l -3.2773,-8.1849 h 1.4286 l 1.6639,4.5210 c 0.1849,0.5378 0.3950,1.1345 0.3950 1.1345c 0.2101,0.5966 0.3950,1.1681 0.3950 1.1681h 0.0672 c 0.1849,-0.5546 0.3529,-1.1597 0.3529 -1.1597c 0.1681,-0.6050 0.3361,-1.1429 0.3361 -1.1429l 1.4622,-4.5210 h 1.3445 l -3.0756,8.8403 c -0.2185,0.6050 -0.4874,1.1261 -0.4874 1.1261c -0.2689,0.5210 -0.6387,0.8992 -0.6387 0.8992c -0.3697,0.3782 -0.8403,0.5966 -0.8403 0.5966c -0.4706,0.2185 -1.0924,0.2185 -1.0924 0.2185c -0.2857,-0.0000 -0.5210,-0.0420 -0.5210 -0.0420c -0.2353,-0.0420 -0.4370,-0.1261 -0.4370 -0.1261l 0.2689,-1.0924 h 0.0000 ZM 560.7542,566.0000 ZM 564.3508,568.9580 c -1.0420,-1.6807 -1.6303,-3.5462 -1.6303 -3.5462c -0.5882,-1.8655 -0.5882,-4.0840 -0.5882 -4.0840c 0.0000,-2.2185 0.5882,-4.0756 0.5882 -4.0756c 0.5882,-1.8571 1.6303,-3.5546 1.6303 -3.5546l 0.8571,0.4034 c -0.9748,1.6134 -1.4538,3.4538 -1.4538 3.4538c -0.4790,1.8403 -0.4790,3.7731 -0.4790 3.7731c 0.0000,1.9328 0.4790,3.7731 0.4790 3.7731c 0.4790,1.8403 1.4538,3.4538 1.4538 3.4538l -0.8571,0.4034 h 0.0000 ZM 565.8466,566.0000 ZM 566.5189,565.1765 c 1.2101,-1.2101 2.1513,-2.1849 2.1513 -2.1849c 0.9412,-0.9748 1.5798,-1.8067 1.5798 -1.8067c 0.6387,-0.8319 0.9748,-1.5294 0.9748 -1.5294c 0.3361,-0.6975 0.3361,-1.3529 0.3361 -1.3529c 0.0000,-0.9244 -0.5042,-1.5126 -0.5042 -1.5126c -0.5042,-0.5882 -1.5294,-0.5882 -1.5294 -0.5882c -0.6723,-0.0000 -1.2437,0.3782 -1.2437 0.3782c -0.5714,0.3782 -1.0420,0.9160 -1.0420 0.9160l -0.7899,-0.7899 c 0.6723,-0.7395 1.4286,-1.1849 1.4286 -1.1849c 0.7563,-0.4454 1.8151,-0.4454 1.8151 -0.4454c 1.4958,0.0000 2.3529,0.8655 2.3529 0.8655c 0.8571,0.8655 0.8571,2.2941 0.8571 2.2941c 0.0000,0.7563 -0.3277,1.5210 -0.3277 1.5210c -0.3277,0.7647 -0.9076,1.5798 -0.9076 1.5798c -0.5798,0.8151 -1.3782,1.6975 -1.3782 1.6975c -0.7983,0.8824 -1.7563,1.8739 -1.7563 1.8739c 0.4370,-0.0336 0.9076,-0.0672 0.9076 -0.0672c 0.4706,-0.0336 0.8908,-0.0336 0.8908 -0.0336h 3.1092 v 1.1933 h -6.9244 v -0.8235 ZM 574.1996,566.0000 ZM 574.8382,568.5546 c 0.9748,-1.6134 1.4538,-3.4538 1.4538 -3.4538c 0.4790,-1.8403 0.4790,-3.7731 0.4790 -3.7731c 0.0000,-1.9328 -0.4790,-3.7731 -0.4790 -3.7731c -0.4790,-1.8403 -1.4538,-3.4538 -1.4538 -3.4538l 0.8571,-0.4034 c 1.0420,1.6975 1.6303,3.5546 1.6303 3.5546c 0.5882,1.8571 0.5882,4.0756 0.5882 4.0756c 0.0000,2.2185 -0.5882,4.0840 -0.5882 4.0840c -0.5882,1.8655 -1.6303,3.5462 -1.6303 3.5462l -0.8571,-0.4034 h 0.0000 ZM 579.2920,566.0000 ZM 582.8887,568.9580 c -1.0420,-1.6807 -1.6303,-3.5462 -1.6303 -3.5462c -0.5882,-1.8655 -0.5882,-4.0840 -0.5882 -4.0840c 0.0000,-2.2185 0.5882,-4.0756 0.5882 -4.0756c 0.5882,-1.8571 1.6303,-3.5546 1.6303 -3.5546l 0.8571,0.4034 c -0.9748,1.6134 -1.4538,3.4538 -1.4538 3.4538c -0.4790,1.8403 -0.4790,3.7731 -0.4790 3.7731c 0.0000,1.9328 0.4790,3.7731 0.4790 3.7731c 0.4790,1.8403 1.4538,3.4538 1.4538 3.4538l -0.8571,0.4034 h 0.0000 ZM 584.3845,566.0000 ZM 585.0735,561.2605 h 3.8655 v 1.0588 h -3.8655 v -1.0588 ZM 589.6113,566.0000 ZM 590.9895,554.0336 h 1.3782 v 3.2605 l -0.0336,1.4790 c 0.5546,-0.4874 1.2101,-0.8151 1.2101 -0.8151c 0.6555,-0.3277 1.3445,-0.3277 1.3445 -0.3277c 0.7899,0.0000 1.3950,0.2941 1.3950 0.2941c 0.6050,0.2941 1.0168,0.8403 1.0168 0.8403c 0.4118,0.5462 0.6218,1.3109 0.6218 1.3109c 0.2101,0.7647 0.2101,1.7059 0.2101 1.7059c 0.0000,1.0420 -0.2857,1.8655 -0.2857 1.8655c -0.2857,0.8235 -0.7731,1.3950 -0.7731 1.3950c -0.4874,0.5714 -1.1261,0.8655 -1.1261 0.8655c -0.6387,0.2941 -1.3445,0.2941 -1.3445 0.2941c -0.5714,-0.0000 -1.1849,-0.2605 -1.1849 -0.2605c -0.6134,-0.2605 -1.1513,-0.7479 -1.1513 -0.7479h -0.0504 l -0.1176,0.8067 h -1.1092 v -11.9664 ZM 590.9895,554.0336 ZM 592.3676,564.1849 c 0.5378,0.4706 1.0672,0.6639 1.0672 0.6639c 0.5294,0.1933 0.9328,0.1933 0.9328 0.1933c 0.5042,0.0000 0.9328,-0.2269 0.9328 -0.2269c 0.4286,-0.2269 0.7395,-0.6387 0.7395 -0.6387c 0.3109,-0.4118 0.4874,-1.0168 0.4874 -1.0168c 0.1765,-0.6050 0.1765,-1.3613 0.1765 -1.3613c 0.0000,-0.6723 -0.1176,-1.2269 -0.1176 -1.2269c -0.1176,-0.5546 -0.3782,-0.9496 -0.3782 -0.9496c -0.2605,-0.3950 -0.6723,-0.6134 -0.6723 -0.6134c -0.4118,-0.2185 -0.9832,-0.2185 -0.9832 -0.2185c -0.9916,-0.0000 -2.1849,1.1092 -2.1849 1.1092v 4.2857 ZM 598.7038,566.0000 ZM 599.6786,563.8824 c 0.0000,-1.3445 1.2017,-2.0588 1.2017 -2.0588c 1.2017,-0.7143 3.8235,-1.0000 3.8235 -1.0000c 0.0000,-0.3866 -0.0756,-0.7563 -0.0756 -0.7563c -0.0756,-0.3697 -0.2689,-0.6555 -0.2689 -0.6555c -0.1933,-0.2857 -0.5126,-0.4622 -0.5126 -0.4622c -0.3193,-0.1765 -0.8235,-0.1765 -0.8235 -0.1765c -0.7227,-0.0000 -1.3361,0.2689 -1.3361 0.2689c -0.6134,0.2689 -1.1008,0.6050 -1.1008 0.6050l -0.5546,-0.9580 c 0.5714,-0.3697 1.3950,-0.7143 1.3950 -0.7143c 0.8235,-0.3445 1.8151,-0.3445 1.8151 -0.3445c 1.4958,0.0000 2.1681,0.9160 2.1681 0.9160c 0.6723,0.9160 0.6723,2.4454 0.6723 2.4454v 5.0084 h -1.1429 l -0.1176,-0.9748 h -0.0336 c -0.5882,0.4874 -1.2689,0.8319 -1.2689 0.8319c -0.6807,0.3445 -1.4370,0.3445 -1.4370 0.3445c -1.0420,-0.0000 -1.7227,-0.6050 -1.7227 -0.6050c -0.6807,-0.6050 -0.6807,-1.7143 -0.6807 -1.7143ZM 599.6786,563.8824 ZM 601.0399,563.7815 c 0.0000,0.7059 0.4118,1.0084 0.4118 1.0084c 0.4118,0.3025 1.0168,0.3025 1.0168 0.3025c 0.5882,0.0000 1.1176,-0.2773 1.1176 -0.2773c 0.5294,-0.2773 1.1176,-0.8151 1.1176 -0.8151v -2.2689 c -1.0252,0.1345 -1.7311,0.3193 -1.7311 0.3193c -0.7059,0.1849 -1.1345,0.4370 -1.1345 0.4370c -0.4286,0.2521 -0.6134,0.5798 -0.6134 0.5798c -0.1849,0.3277 -0.1849,0.7143 -0.1849 0.7143ZM 607.3088,566.0000 ZM 608.4685,564.1513 c 0.5378,0.4370 1.1008,0.7059 1.1008 0.7059c 0.5630,0.2689 1.3025,0.2689 1.3025 0.2689c 0.8067,0.0000 1.2101,-0.3697 1.2101 -0.3697c 0.4034,-0.3697 0.4034,-0.9076 0.4034 -0.9076c 0.0000,-0.3193 -0.1681,-0.5546 -0.1681 -0.5546c -0.1681,-0.2353 -0.4286,-0.4118 -0.4286 -0.4118c -0.2605,-0.1765 -0.5966,-0.3109 -0.5966 -0.3109l -0.6723,-0.2689 c -0.4370,-0.1513 -0.8739,-0.3445 -0.8739 -0.3445c -0.4370,-0.1933 -0.7815,-0.4706 -0.7815 -0.4706c -0.3445,-0.2773 -0.5630,-0.6471 -0.5630 -0.6471c -0.2185,-0.3697 -0.2185,-0.8908 -0.2185 -0.8908c 0.0000,-0.4874 0.1933,-0.9160 0.1933 -0.9160c 0.1933,-0.4286 0.5546,-0.7395 0.5546 -0.7395c 0.3613,-0.3109 0.8824,-0.4874 0.8824 -0.4874c 0.5210,-0.1765 1.1765,-0.1765 1.1765 -0.1765c 0.7731,0.0000 1.4202,0.2689 1.4202 0.2689c 0.6471,0.2689 1.1176,0.6555 1.1176 0.6555l -0.6555,0.8739 c -0.4202,-0.3193 -0.8739,-0.5210 -0.8739 -0.5210c -0.4538,-0.2017 -0.9916,-0.2017 -0.9916 -0.2017c -0.7731,-0.0000 -1.1345,0.3529 -1.1345 0.3529c -0.3613,0.3529 -0.3613,0.8235 -0.3613 0.8235c 0.0000,0.2857 0.1513,0.4958 0.1513 0.4958c 0.1513,0.2101 0.4034,0.3697 0.4034 0.3697c 0.2521,0.1597 0.5798,0.2857 0.5798 0.2857c 0.3277,0.1261 0.6807,0.2605 0.6807 0.2605c 0.4370,0.1681 0.8824,0.3529 0.8824 0.3529c 0.4454,0.1849 0.7983,0.4622 0.7983 0.4622c 0.3529,0.2773 0.5798,0.6807 0.5798 0.6807c 0.2269,0.4034 0.2269,0.9748 0.2269 0.9748c 0.0000,0.5042 -0.1933,0.9412 -0.1933 0.9412c -0.1933,0.4370 -0.5714,0.7731 -0.5714 0.7731c -0.3782,0.3361 -0.9412,0.5294 -0.9412 0.5294c -0.5630,0.1933 -1.2857,0.1933 -1.2857 0.1933c -0.8739,-0.0000 -1.6639,-0.3193 -1.6639 -0.3193c -0.7899,-0.3193 -1.3782,-0.8067 -1.3782 -0.8067ZM 614.3508,566.0000 ZM 615.1239,561.9328 c 0.0000,-1.0084 0.3109,-1.8067 0.3109 -1.8067c 0.3109,-0.7983 0.8235,-1.3529 0.8235 -1.3529c 0.5126,-0.5546 1.1681,-0.8487 1.1681 -0.8487c 0.6555,-0.2941 1.3613,-0.2941 1.3613 -0.2941c 0.7731,0.0000 1.3866,0.2689 1.3866 0.2689c 0.6134,0.2689 1.0252,0.7731 1.0252 0.7731c 0.4118,0.5042 0.6303,1.2101 0.6303 1.2101c 0.2185,0.7059 0.2185,1.5798 0.2185 1.5798c 0.0000,0.4538 -0.0504,0.7563 -0.0504 0.7563h -5.5126 c 0.0840,1.3277 0.8151,2.1008 0.8151 2.1008c 0.7311,0.7731 1.9076,0.7731 1.9076 0.7731c 0.5882,0.0000 1.0840,-0.1765 1.0840 -0.1765c 0.4958,-0.1765 0.9496,-0.4622 0.9496 -0.4622l 0.4874,0.9076 c -0.5378,0.3361 -1.1933,0.5882 -1.1933 0.5882c -0.6555,0.2521 -1.4958,0.2521 -1.4958 0.2521c -0.8235,-0.0000 -1.5378,-0.2941 -1.5378 -0.2941c -0.7143,-0.2941 -1.2437,-0.8403 -1.2437 -0.8403c -0.5294,-0.5462 -0.8319,-1.3361 -0.8319 -1.3361c -0.3025,-0.7899 -0.3025,-1.7983 -0.3025 -1.7983ZM 615.1239,561.9328 ZM 620.8382,561.3109 c 0.0000,-1.2605 -0.5294,-1.9244 -0.5294 -1.9244c -0.5294,-0.6639 -1.4874,-0.6639 -1.4874 -0.6639c -0.4370,-0.0000 -0.8319,0.1765 -0.8319 0.1765c -0.3950,0.1765 -0.7143,0.5042 -0.7143 0.5042c -0.3193,0.3277 -0.5294,0.8067 -0.5294 0.8067c -0.2101,0.4790 -0.2773,1.1008 -0.2773 1.1008h 4.3697 ZM 622.6870,566.0000 ZM 623.3256,568.5546 c 0.9748,-1.6134 1.4538,-3.4538 1.4538 -3.4538c 0.4790,-1.8403 0.4790,-3.7731 0.4790 -3.7731c 0.0000,-1.9328 -0.4790,-3.7731 -0.4790 -3.7731c -0.4790,-1.8403 -1.4538,-3.4538 -1.4538 -3.4538l 0.8571,-0.4034 c 1.0420,1.6975 1.6303,3.5546 1.6303 3.5546c 0.5882,1.8571 0.5882,4.0756 0.5882 4.0756c 0.0000,2.2185 -0.5882,4.0840 -0.5882 4.0840c -0.5882,1.8655 -1.6303,3.5462 -1.6303 3.5462l -0.8571,-0.4034 h 0.0000 Z"/></g><g stroke-linejoin="bevel" stroke-opacity="0.0" fill-opacity="1.0" stroke="rgb(0,0,0)" stroke-width="0.0" fill="rgb(0,0,255)" stroke-linecap="butt" stroke-miterlimit="10.0"><path d="M 10.0000,576.0000 v 14.0000 h 22.0000 v -14.0000 Z"/></g><g stroke-linejoin="bevel" stroke-opacity="0.0" fill-opacity="1.0" stroke="rgb(0,0,0)" stroke-width="0.0" fill="rgb(0,0,0)" stroke-linecap="butt" stroke-miterlimit="10.0"><path d="M 39.1029,585.2500 ZM 43.5294,575.7647 c -0.3971,-0.1765 -0.8088,-0.1765 -0.8088 -0.1765c -1.0000,-0.0000 -1.0000,1.3824 -1.0000 1.3824v 1.1324 h 1.5147 v 0.9853 h -1.5147 v 6.1618 h -1.2059 v -6.1618 h -0.9706 v -0.9118 l 0.9706,-0.0735 v -1.1324 c 0.0000,-1.1029 0.5074,-1.7353 0.5074 -1.7353c 0.5074,-0.6324 1.5809,-0.6324 1.5809 -0.6324c 0.3382,0.0000 0.6397,0.0662 0.6397 0.0662c 0.3015,0.0662 0.5515,0.1691 0.5515 0.1691ZM 43.2500,585.2500 ZM 43.9265,581.6912 c 0.0000,-0.8971 0.2721,-1.5956 0.2721 -1.5956c 0.2721,-0.6985 0.7279,-1.1838 0.7279 -1.1838c 0.4559,-0.4853 1.0515,-0.7353 1.0515 -0.7353c 0.5956,-0.2500 1.2574,-0.2500 1.2574 -0.2500c 0.6618,0.0000 1.2574,0.2500 1.2574 0.2500c 0.5956,0.2500 1.0515,0.7353 1.0515 0.7353c 0.4559,0.4853 0.7279,1.1838 0.7279 1.1838c 0.2721,0.6985 0.2721,1.5956 0.2721 1.5956c 0.0000,0.8824 -0.2721,1.5809 -0.2721 1.5809c -0.2721,0.6985 -0.7279,1.1765 -0.7279 1.1765c -0.4559,0.4779 -1.0515,0.7279 -1.0515 0.7279c -0.5956,0.2500 -1.2574,0.2500 -1.2574 0.2500c -0.6618,-0.0000 -1.2574,-0.2500 -1.2574 -0.2500c -0.5956,-0.2500 -1.0515,-0.7279 -1.0515 -0.7279c -0.4559,-0.4779 -0.7279,-1.1765 -0.7279 -1.1765c -0.2721,-0.6985 -0.2721,-1.5809 -0.2721 -1.5809ZM 43.9265,581.6912 ZM 45.1765,581.6912 c 0.0000,0.6176 0.1471,1.1176 0.1471 1.1176c 0.1471,0.5000 0.4191,0.8603 0.4191 0.8603c 0.2721,0.3603 0.6544,0.5588 0.6544 0.5588c 0.3824,0.1985 0.8382,0.1985 0.8382 0.1985c 0.4559,0.0000 0.8382,-0.1985 0.8382 -0.1985c 0.3824,-0.1985 0.6544,-0.5588 0.6544 -0.5588c 0.2721,-0.3603 0.4191,-0.8603 0.4191 -0.8603c 0.1471,-0.5000 0.1471,-1.1176 0.1471 -1.1176c 0.0000,-0.6176 -0.1471,-1.1250 -0.1471 -1.1250c -0.1471,-0.5074 -0.4191,-0.8750 -0.4191 -0.8750c -0.2721,-0.3676 -0.6544,-0.5662 -0.6544 -0.5662c -0.3824,-0.1985 -0.8382,-0.1985 -0.8382 -0.1985c -0.4559,-0.0000 -0.8382,0.1985 -0.8382 0.1985c -0.3824,0.1985 -0.6544,0.5662 -0.6544 0.5662c -0.2721,0.3676 -0.4191,0.8750 -0.4191 0.8750c -0.1471,0.5074 -0.1471,1.1250 -0.1471 1.1250ZM 51.2206,585.2500 ZM 52.4265,574.7794 h 1.2059 v 9.1176 c 0.0000,0.2941 0.1029,0.4118 0.1029 0.4118c 0.1029,0.1176 0.2353,0.1176 0.2353 0.1176h 0.1103 c 0.0000,0.0000 0.1544,-0.0294 0.1544 -0.0294l 0.1618,0.9118 c -0.1176,0.0588 -0.2794,0.0882 -0.2794 0.0882c -0.1618,0.0294 -0.4118,0.0294 -0.4118 0.0294c -0.6912,-0.0000 -0.9853,-0.4118 -0.9853 -0.4118c -0.2941,-0.4118 -0.2941,-1.2059 -0.2941 -1.2059v -9.0294 ZM 54.9706,585.2500 ZM 55.6618,581.6912 c 0.0000,-0.8676 0.2574,-1.5662 0.2574 -1.5662c 0.2574,-0.6985 0.6838,-1.1838 0.6838 -1.1838c 0.4265,-0.4853 0.9853,-0.7500 0.9853 -0.7500c 0.5588,-0.2647 1.1765,-0.2647 1.1765 -0.2647c 0.6176,0.0000 1.0735,0.2206 1.0735 0.2206c 0.4559,0.2206 0.9265,0.6029 0.9265 0.6029l -0.0588,-1.2206 v -2.7500 h 1.2206 v 10.4706 h -1.0000 l -0.1029,-0.8382 h -0.0441 c -0.4265,0.4118 -0.9779,0.7132 -0.9779 0.7132c -0.5515,0.3015 -1.1838,0.3015 -1.1838 0.3015c -1.3529,-0.0000 -2.1544,-0.9706 -2.1544 -0.9706c -0.8015,-0.9706 -0.8015,-2.7647 -0.8015 -2.7647ZM 55.6618,581.6912 ZM 56.9118,581.6765 c 0.0000,1.2941 0.5147,2.0147 0.5147 2.0147c 0.5147,0.7206 1.4559,0.7206 1.4559 0.7206c 0.5000,0.0000 0.9412,-0.2426 0.9412 -0.2426c 0.4412,-0.2426 0.8824,-0.7426 0.8824 -0.7426v -3.7353 c -0.4559,-0.4118 -0.8750,-0.5809 -0.8750 -0.5809c -0.4191,-0.1691 -0.8603,-0.1691 -0.8603 -0.1691c -0.4265,-0.0000 -0.8015,0.1985 -0.8015 0.1985c -0.3750,0.1985 -0.6544,0.5588 -0.6544 0.5588c -0.2794,0.3603 -0.4412,0.8603 -0.4412 0.8603c -0.1618,0.5000 -0.1618,1.1176 -0.1618 1.1176Z"/></g><g stroke-linejoin="bevel" stroke-opacity="0.0" fill-opacity="1.0" stroke="rgb(0,0,0)" stroke-width="0.0" fill="rgb(0,128,0)" stroke-linecap="butt" stroke-miterlimit="10.0"><path d="M 81.4853,576.0000 v 14.0000 h 22.0000 v -14.0000 Z"/></g><g stroke-linejoin="bevel" stroke-opacity="0.0" fill-opacity="1.0" stroke="rgb(0,0,0)" stroke-width="0.0" fill="rgb(0,0,0)" stroke-linecap="butt" stroke-miterlimit="10.0"><path d="M 110.5882,585.2500 ZM 111.7941,578.1029 h 1.0000 l 0.1029,1.0294 h 0.0441 c 0.4706,-0.5147 1.0221,-0.8603 1.0221 -0.8603c 0.5515,-0.3456 1.1985,-0.3456 1.1985 -0.3456c 0.8235,0.0000 1.2868,0.3603 1.2868 0.3603c 0.4632,0.3603 0.6838,1.0074 0.6838 1.0074c 0.5588,-0.6176 1.1250,-0.9926 1.1250 -0.9926c 0.5662,-0.3750 1.2279,-0.3750 1.2279 -0.3750c 1.1029,0.0000 1.6397,0.7059 1.6397 0.7059c 0.5368,0.7059 0.5368,2.0882 0.5368 2.0882v 4.5294 h -1.2059 v -4.3676 c 0.0000,-1.0147 -0.3235,-1.4632 -0.3235 -1.4632c -0.3235,-0.4485 -1.0000,-0.4485 -1.0000 -0.4485c -0.8088,-0.0000 -1.7941,1.1029 -1.7941 1.1029v 5.1765 h -1.2059 v -4.3676 c 0.0000,-1.0147 -0.3235,-1.4632 -0.3235 -1.4632c -0.3235,-0.4485 -1.0147,-0.4485 -1.0147 -0.4485c -0.8088,-0.0000 -1.7941,1.1029 -1.7941 1.1029v 5.1765 h -1.2059 v -7.1471 ZM 122.7794,585.2500 ZM 123.6324,583.3971 c 0.0000,-1.1765 1.0515,-1.8015 1.0515 -1.8015c 1.0515,-0.6250 3.3456,-0.8750 3.3456 -0.8750c 0.0000,-0.3382 -0.0662,-0.6618 -0.0662 -0.6618c -0.0662,-0.3235 -0.2353,-0.5735 -0.2353 -0.5735c -0.1691,-0.2500 -0.4485,-0.4044 -0.4485 -0.4044c -0.2794,-0.1544 -0.7206,-0.1544 -0.7206 -0.1544c -0.6324,-0.0000 -1.1691,0.2353 -1.1691 0.2353c -0.5368,0.2353 -0.9632,0.5294 -0.9632 0.5294l -0.4853,-0.8382 c 0.5000,-0.3235 1.2206,-0.6250 1.2206 -0.6250c 0.7206,-0.3015 1.5882,-0.3015 1.5882 -0.3015c 1.3088,0.0000 1.8971,0.8015 1.8971 0.8015c 0.5882,0.8015 0.5882,2.1397 0.5882 2.1397v 4.3824 h -1.0000 l -0.1029,-0.8529 h -0.0294 c -0.5147,0.4265 -1.1103,0.7279 -1.1103 0.7279c -0.5956,0.3015 -1.2574,0.3015 -1.2574 0.3015c -0.9118,-0.0000 -1.5074,-0.5294 -1.5074 -0.5294c -0.5956,-0.5294 -0.5956,-1.5000 -0.5956 -1.5000ZM 123.6324,583.3971 ZM 124.8235,583.3088 c 0.0000,0.6176 0.3603,0.8824 0.3603 0.8824c 0.3603,0.2647 0.8897,0.2647 0.8897 0.2647c 0.5147,0.0000 0.9779,-0.2426 0.9779 -0.2426c 0.4632,-0.2426 0.9779,-0.7132 0.9779 -0.7132v -1.9853 c -0.8971,0.1176 -1.5147,0.2794 -1.5147 0.2794c -0.6176,0.1618 -0.9926,0.3824 -0.9926 0.3824c -0.3750,0.2206 -0.5368,0.5074 -0.5368 0.5074c -0.1618,0.2868 -0.1618,0.6250 -0.1618 0.6250ZM 130.3088,585.2500 ZM 132.7206,585.8529 v 2.4118 h -1.2059 v -10.1618 h 1.0000 l 0.1029,0.8235 h 0.0441 c 0.4853,-0.4118 1.0662,-0.7059 1.0662 -0.7059c 0.5809,-0.2941 1.2132,-0.2941 1.2132 -0.2941c 0.6912,0.0000 1.2206,0.2574 1.2206 0.2574c 0.5294,0.2574 0.8824,0.7353 0.8824 0.7353c 0.3529,0.4779 0.5368,1.1471 0.5368 1.1471c 0.1838,0.6691 0.1838,1.5074 0.1838 1.5074c 0.0000,0.9118 -0.2500,1.6250 -0.2500 1.6250c -0.2500,0.7132 -0.6765,1.2132 -0.6765 1.2132c -0.4265,0.5000 -0.9853,0.7574 -0.9853 0.7574c -0.5588,0.2574 -1.1765,0.2574 -1.1765 0.2574c -0.5000,-0.0000 -0.9926,-0.2206 -0.9926 -0.2206c -0.4926,-0.2206 -0.9926,-0.6029 -0.9926 -0.6029ZM 132.7206,585.8529 ZM 132.7206,583.6618 c 0.4853,0.4118 0.9412,0.5809 0.9412 0.5809c 0.4559,0.1691 0.8088,0.1691 0.8088 0.1691c 0.4412,0.0000 0.8162,-0.1985 0.8162 -0.1985c 0.3750,-0.1985 0.6471,-0.5588 0.6471 -0.5588c 0.2721,-0.3603 0.4265,-0.8897 0.4265 -0.8897c 0.1544,-0.5294 0.1544,-1.1912 0.1544 -1.1912c 0.0000,-0.5882 -0.1029,-1.0735 -0.1029 -1.0735c -0.1029,-0.4853 -0.3309,-0.8309 -0.3309 -0.8309c -0.2279,-0.3456 -0.5882,-0.5368 -0.5882 -0.5368c -0.3603,-0.1912 -0.8603,-0.1912 -0.8603 -0.1912c -0.4559,-0.0000 -0.9191,0.2500 -0.9191 0.2500c -0.4632,0.2500 -0.9926,0.7206 -0.9926 0.7206v 3.7500 Z"/></g><g stroke-linejoin="bevel" stroke-opacity="0.0" fill-opacity="1.0" stroke="rgb(0,0,0)" stroke-width="0.0" fill="rgb(255,0,0)" stroke-linecap="butt" stroke-miterlimit="10.0"><path d="M 156.5588,576.0000 v 14.0000 h 22.0000 v -14.0000 Z"/></g><g stroke-linejoin="bevel" stroke-opacity="0.0" fill-opacity="1.0" stroke="rgb(0,0,0)" stroke-width="0.0" fill="rgb(0,0,0)" stroke-linecap="butt" stroke-miterlimit="10.0"><path d="M 185.6618,585.2500 ZM 186.1176,584.6029 l 3.7647,-5.5147 h -3.3529 v -0.9853 h 4.8824 v 0.6471 l -3.7647,5.5147 h 3.8824 v 0.9853 h -5.4118 v -0.6471 ZM 191.9118,585.2500 ZM 193.7353,576.6324 c -0.3529,-0.0000 -0.5956,-0.2206 -0.5956 -0.2206c -0.2426,-0.2206 -0.2426,-0.5588 -0.2426 -0.5588c 0.0000,-0.3529 0.2426,-0.5662 0.2426 -0.5662c 0.2426,-0.2132 0.5956,-0.2132 0.5956 -0.2132c 0.3529,0.0000 0.5956,0.2132 0.5956 0.2132c 0.2426,0.2132 0.2426,0.5662 0.2426 0.5662c 0.0000,0.3382 -0.2426,0.5588 -0.2426 0.5588c -0.2426,0.2206 -0.5956,0.2206 -0.5956 0.2206ZM 193.7353,576.6324 ZM 193.1176,578.1029 h 1.2059 v 7.1471 h -1.2059 v -7.1471 ZM 195.5294,585.2500 ZM 197.9412,585.8529 v 2.4118 h -1.2059 v -10.1618 h 1.0000 l 0.1029,0.8235 h 0.0441 c 0.4853,-0.4118 1.0662,-0.7059 1.0662 -0.7059c 0.5809,-0.2941 1.2132,-0.2941 1.2132 -0.2941c 0.6912,0.0000 1.2206,0.2574 1.2206 0.2574c 0.5294,0.2574 0.8824,0.7353 0.8824 0.7353c 0.3529,0.4779 0.5368,1.1471 0.5368 1.1471c 0.1838,0.6691 0.1838,1.5074 0.1838 1.5074c 0.0000,0.9118 -0.2500,1.6250 -0.2500 1.6250c -0.2500,0.7132 -0.6765,1.2132 -0.6765 1.2132c -0.4265,0.5000 -0.9853,0.7574 -0.9853 0.7574c -0.5588,0.2574 -1.1765,0.2574 -1.1765 0.2574c -0.5000,-0.0000 -0.9926,-0.2206 -0.9926 -0.2206c -0.4926,-0.2206 -0.9926,-0.6029 -0.9926 -0.6029ZM 197.9412,585.8529 ZM 197.9412,583.6618 c 0.4853,0.4118 0.9412,0.5809 0.9412 0.5809c 0.4559,0.1691 0.8088,0.1691 0.8088 0.1691c 0.4412,0.0000 0.8162,-0.1985 0.8162 -0.1985c 0.3750,-0.1985 0.6471,-0.5588 0.6471 -0.5588c 0.2721,-0.3603 0.4265,-0.8897 0.4265 -0.8897c 0.1544,-0.5294 0.1544,-1.1912 0.1544 -1.1912c 0.0000,-0.5882 -0.1029,-1.0735 -0.1029 -1.0735c -0.1029,-0.4853 -0.3309,-0.8309 -0.3309 -0.8309c -0.2279,-0.3456 -0.5882,-0.5368 -0.5882 -0.5368c -0.3603,-0.1912 -0.8603,-0.1912 -0.8603 -0.1912c -0.4559,-0.0000 -0.9191,0.2500 -0.9191 0.2500c -0.4632,0.2500 -0.9926,0.7206 -0.9926 0.7206v 3.7500 Z"/></g></svg>